<svg xmlns="http://www.w3.org/2000/svg" xmlns:xlink="http://www.w3.org/1999/xlink" width="500" zoomAndPan="magnify" viewBox="0 0 375 374.999991" height="500" preserveAspectRatio="xMidYMid meet" version="1.0"><defs><g/><clipPath id="d1c07e54f8"><path d="M 113.109375 140.636719 L 170.972656 140.636719 L 170.972656 217 L 113.109375 217 Z M 113.109375 140.636719 " clip-rule="nonzero"/></clipPath><clipPath id="58a5f2e747"><path d="M 119.859375 140.636719 L 164.222656 140.636719 C 167.949219 140.636719 170.972656 143.65625 170.972656 147.386719 L 170.972656 210.15625 C 170.972656 213.882812 167.949219 216.90625 164.222656 216.90625 L 119.859375 216.90625 C 116.132812 216.90625 113.109375 213.882812 113.109375 210.15625 L 113.109375 147.386719 C 113.109375 143.65625 116.132812 140.636719 119.859375 140.636719 Z M 119.859375 140.636719 " clip-rule="nonzero"/></clipPath><clipPath id="ceeeb39cfe"><path d="M 112 176 L 153 176 L 153 253 L 112 253 Z M 112 176 " clip-rule="nonzero"/></clipPath><clipPath id="b274ef990f"><path d="M 148.183594 176.207031 L 188.632812 212.191406 L 152.648438 252.640625 L 112.199219 216.65625 Z M 148.183594 176.207031 " clip-rule="nonzero"/></clipPath><clipPath id="1015ed7434"><path d="M 112.460938 216.363281 L 152.910156 252.347656 L 188.890625 211.898438 L 148.445312 175.914062 Z M 112.460938 216.363281 " clip-rule="nonzero"/></clipPath><clipPath id="b6905d2bd9"><path d="M 72 176 L 149 176 L 149 217 L 72 217 Z M 72 176 " clip-rule="nonzero"/></clipPath><clipPath id="cfa1e9c31e"><path d="M 108.4375 140.636719 L 148.882812 176.621094 L 112.902344 217.070312 L 72.453125 181.085938 Z M 108.4375 140.636719 " clip-rule="nonzero"/></clipPath><clipPath id="898d518d38"><path d="M 112.867188 216.515625 L 72.421875 180.53125 L 108.40625 140.082031 L 148.851562 176.066406 Z M 112.867188 216.515625 " clip-rule="nonzero"/></clipPath><clipPath id="882ccfb991"><path d="M 121 169 L 156 169 L 156 205 L 121 205 Z M 121 169 " clip-rule="nonzero"/></clipPath><clipPath id="3c8ac0089f"><path d="M 120.78125 170.621094 L 155.277344 169.28125 L 156.617188 203.777344 L 122.121094 205.117188 Z M 120.78125 170.621094 " clip-rule="nonzero"/></clipPath><clipPath id="ba8894bda1"><path d="M 120.78125 170.621094 L 155.277344 169.28125 L 156.617188 203.777344 L 122.121094 205.117188 Z M 120.78125 170.621094 " clip-rule="nonzero"/></clipPath><clipPath id="2869827daa"><path d="M 120.78125 170.628906 L 155.460938 169.28125 L 156.804688 203.820312 L 122.125 205.167969 Z M 120.78125 170.628906 " clip-rule="nonzero"/></clipPath><clipPath id="507a49c6e4"><path d="M 154.15625 220.335938 L 161.332031 220.335938 L 161.332031 227.511719 L 154.15625 227.511719 Z M 154.15625 220.335938 " clip-rule="nonzero"/></clipPath><clipPath id="6ca10adf68"><path d="M 157.746094 220.335938 C 155.761719 220.335938 154.15625 221.941406 154.15625 223.921875 C 154.15625 225.902344 155.761719 227.511719 157.746094 227.511719 C 159.726562 227.511719 161.332031 225.902344 161.332031 223.921875 C 161.332031 221.941406 159.726562 220.335938 157.746094 220.335938 Z M 157.746094 220.335938 " clip-rule="nonzero"/></clipPath><clipPath id="bcc63800cb"><path d="M 123.355469 220.335938 L 130.53125 220.335938 L 130.53125 227.511719 L 123.355469 227.511719 Z M 123.355469 220.335938 " clip-rule="nonzero"/></clipPath><clipPath id="8c7c83111a"><path d="M 126.941406 220.335938 C 124.960938 220.335938 123.355469 221.941406 123.355469 223.921875 C 123.355469 225.902344 124.960938 227.511719 126.941406 227.511719 C 128.925781 227.511719 130.53125 225.902344 130.53125 223.921875 C 130.53125 221.941406 128.925781 220.335938 126.941406 220.335938 Z M 126.941406 220.335938 " clip-rule="nonzero"/></clipPath><clipPath id="26b505331a"><path d="M 134.203125 132.761719 L 136.578125 132.761719 L 136.578125 139.4375 L 134.203125 139.4375 Z M 134.203125 132.761719 " clip-rule="nonzero"/></clipPath><clipPath id="6692a46c3f"><path d="M 134.953125 132.761719 L 135.828125 132.761719 C 136.023438 132.761719 136.214844 132.839844 136.355469 132.980469 C 136.496094 133.121094 136.578125 133.3125 136.578125 133.511719 L 136.578125 138.6875 C 136.578125 138.886719 136.496094 139.078125 136.355469 139.21875 C 136.214844 139.359375 136.023438 139.4375 135.828125 139.4375 L 134.953125 139.4375 C 134.757812 139.4375 134.566406 139.359375 134.425781 139.21875 C 134.285156 139.078125 134.203125 138.886719 134.203125 138.6875 L 134.203125 133.511719 C 134.203125 133.3125 134.285156 133.121094 134.425781 132.980469 C 134.566406 132.839844 134.757812 132.761719 134.953125 132.761719 Z M 134.953125 132.761719 " clip-rule="nonzero"/></clipPath><clipPath id="f5f6525b30"><path d="M 147.261719 132.761719 L 149.632812 132.761719 L 149.632812 139.4375 L 147.261719 139.4375 Z M 147.261719 132.761719 " clip-rule="nonzero"/></clipPath><clipPath id="3f1f866f8c"><path d="M 148.011719 132.761719 L 148.882812 132.761719 C 149.078125 132.761719 149.269531 132.839844 149.410156 132.980469 C 149.550781 133.121094 149.632812 133.3125 149.632812 133.511719 L 149.632812 138.6875 C 149.632812 138.886719 149.550781 139.078125 149.410156 139.21875 C 149.269531 139.359375 149.078125 139.4375 148.882812 139.4375 L 148.011719 139.4375 C 147.8125 139.4375 147.621094 139.359375 147.480469 139.21875 C 147.339844 139.078125 147.261719 138.886719 147.261719 138.6875 L 147.261719 133.511719 C 147.261719 133.3125 147.339844 133.121094 147.480469 132.980469 C 147.621094 132.839844 147.8125 132.761719 148.011719 132.761719 Z M 148.011719 132.761719 " clip-rule="nonzero"/></clipPath><clipPath id="880bbefea2"><path d="M 132.570312 125.421875 L 138.191406 125.421875 L 138.191406 132.136719 L 132.570312 132.136719 Z M 132.570312 125.421875 " clip-rule="nonzero"/></clipPath><clipPath id="7ac66844de"><path d="M 134.839844 125.441406 L 135.941406 125.441406 C 136.535156 125.441406 137.109375 125.679688 137.53125 126.101562 C 137.953125 126.523438 138.191406 127.097656 138.191406 127.691406 L 138.191406 129.871094 C 138.191406 130.46875 137.953125 131.039062 137.53125 131.460938 C 137.109375 131.882812 136.535156 132.121094 135.941406 132.121094 L 134.839844 132.121094 C 134.246094 132.121094 133.671875 131.882812 133.25 131.460938 C 132.828125 131.039062 132.589844 130.46875 132.589844 129.871094 L 132.589844 127.691406 C 132.589844 127.097656 132.828125 126.523438 133.25 126.101562 C 133.671875 125.679688 134.246094 125.441406 134.839844 125.441406 Z M 134.839844 125.441406 " clip-rule="nonzero"/></clipPath><clipPath id="c71ecf9f34"><path d="M 132.589844 122.90625 L 151.253906 122.90625 L 151.253906 126.710938 L 132.589844 126.710938 Z M 132.589844 122.90625 " clip-rule="nonzero"/></clipPath><clipPath id="67c9ccb45a"><path d="M 134.496094 122.90625 L 149.34375 122.90625 C 149.847656 122.90625 150.332031 123.105469 150.6875 123.460938 C 151.042969 123.820312 151.246094 124.304688 151.246094 124.808594 C 151.246094 125.3125 151.042969 125.796875 150.6875 126.152344 C 150.332031 126.511719 149.847656 126.710938 149.34375 126.710938 L 134.496094 126.710938 C 133.988281 126.710938 133.503906 126.511719 133.148438 126.152344 C 132.792969 125.796875 132.589844 125.3125 132.589844 124.808594 C 132.589844 124.304688 132.792969 123.820312 133.148438 123.460938 C 133.503906 123.105469 133.988281 122.90625 134.496094 122.90625 Z M 134.496094 122.90625 " clip-rule="nonzero"/></clipPath><clipPath id="6fb2d03755"><path d="M 145.625 125.421875 L 151.246094 125.421875 L 151.246094 132.136719 L 145.625 132.136719 Z M 145.625 125.421875 " clip-rule="nonzero"/></clipPath><clipPath id="4b041b4ffe"><path d="M 147.894531 125.441406 L 148.996094 125.441406 C 149.59375 125.441406 150.164062 125.679688 150.585938 126.101562 C 151.007812 126.523438 151.246094 127.097656 151.246094 127.691406 L 151.246094 129.871094 C 151.246094 130.46875 151.007812 131.039062 150.585938 131.460938 C 150.164062 131.882812 149.59375 132.121094 148.996094 132.121094 L 147.894531 132.121094 C 147.300781 132.121094 146.726562 131.882812 146.304688 131.460938 C 145.882812 131.039062 145.644531 130.46875 145.644531 129.871094 L 145.644531 127.691406 C 145.644531 127.097656 145.882812 126.523438 146.304688 126.101562 C 146.726562 125.679688 147.300781 125.441406 147.894531 125.441406 Z M 147.894531 125.441406 " clip-rule="nonzero"/></clipPath></defs><g clip-path="url(#d1c07e54f8)"><g clip-path="url(#58a5f2e747)"><path fill="#760461" d="M 113.109375 140.636719 L 170.972656 140.636719 L 170.972656 216.804688 L 113.109375 216.804688 Z M 113.109375 140.636719 " fill-opacity="1" fill-rule="nonzero"/></g></g><g clip-path="url(#ceeeb39cfe)"><g clip-path="url(#b274ef990f)"><g clip-path="url(#1015ed7434)"><path fill="#ffffff" d="M 112.464844 216.367188 L 152.609375 252.082031 C 151.242188 250.863281 149.9375 249.578125 148.699219 248.230469 C 147.480469 246.902344 146.332031 245.515625 145.253906 244.074219 C 144.195312 242.660156 143.195312 241.175781 142.285156 239.660156 C 141.382812 238.164062 140.546875 236.605469 139.796875 235.027344 C 138.304688 231.886719 137.128906 228.628906 136.269531 225.257812 C 135.417969 221.914062 134.890625 218.515625 134.6875 215.070312 C 134.488281 211.621094 134.617188 208.1875 135.074219 204.765625 C 135.535156 201.316406 136.324219 197.945312 137.4375 194.648438 C 138 192.996094 138.648438 191.347656 139.371094 189.757812 C 140.097656 188.152344 140.917969 186.558594 141.804688 185.03125 C 142.707031 183.472656 143.6875 181.960938 144.742188 180.503906 C 145.820312 179.015625 146.96875 177.585938 148.1875 176.210938 Z M 112.464844 216.367188 " fill-opacity="1" fill-rule="nonzero"/></g></g></g><g clip-path="url(#b6905d2bd9)"><g clip-path="url(#cfa1e9c31e)"><g clip-path="url(#898d518d38)"><path fill="#ffffff" d="M 112.863281 216.511719 L 72.71875 180.796875 C 74.089844 182.011719 75.515625 183.160156 77 184.234375 C 78.460938 185.289062 79.96875 186.269531 81.527344 187.171875 C 83.058594 188.058594 84.648438 188.875 86.257812 189.605469 C 87.847656 190.328125 89.492188 190.976562 91.148438 191.539062 C 94.441406 192.652344 97.8125 193.441406 101.261719 193.902344 C 104.683594 194.359375 108.121094 194.488281 111.566406 194.285156 C 115.011719 194.085938 118.410156 193.558594 121.757812 192.707031 C 125.128906 191.847656 128.382812 190.671875 131.527344 189.179688 C 133.105469 188.429688 134.664062 187.59375 136.160156 186.691406 C 137.671875 185.78125 139.15625 184.78125 140.570312 183.722656 C 142.015625 182.644531 143.398438 181.496094 144.726562 180.277344 C 146.078125 179.035156 147.367188 177.726562 148.585938 176.355469 Z M 112.863281 216.511719 " fill-opacity="1" fill-rule="nonzero"/></g></g></g><g clip-path="url(#882ccfb991)"><g clip-path="url(#3c8ac0089f)"><g clip-path="url(#ba8894bda1)"><g clip-path="url(#2869827daa)"><path fill="#ffffff" d="M 132.867188 204.273438 C 132.710938 204.019531 131.972656 202.851562 131.234375 201.679688 C 130.496094 200.507812 129.816406 199.414062 129.726562 199.25 C 129.632812 199.082031 129.527344 198.949219 129.492188 198.949219 C 129.453125 198.953125 129.0625 199.09375 128.625 199.261719 C 127.398438 199.738281 127.195312 199.546875 127.605469 198.3125 C 127.746094 197.894531 127.859375 197.515625 127.859375 197.472656 C 127.855469 197.429688 126.46875 196.667969 124.777344 195.785156 L 121.699219 194.175781 L 122.382812 193.449219 C 123.300781 192.476562 122.960938 192.476562 127.125 193.460938 C 128.511719 193.789062 129.707031 194.03125 129.78125 194 C 129.855469 193.96875 130.320312 193.332031 130.804688 192.585938 C 132.238281 190.402344 132.777344 189.722656 135.195312 187.066406 C 136.457031 185.679688 138.207031 183.726562 138.21875 183.683594 C 138.230469 183.644531 134.667969 181.734375 130.300781 179.441406 C 125.9375 177.148438 122.429688 175.3125 122.394531 175.261719 C 122.355469 175.207031 122.714844 174.753906 123.1875 174.25 C 123.894531 173.503906 124.113281 173.335938 124.402344 173.328125 C 124.59375 173.320312 125.578125 173.511719 126.585938 173.75 C 127.59375 173.992188 130.246094 174.554688 132.597656 175.113281 L 136.871094 176.128906 L 137.753906 175.199219 C 138.238281 174.691406 138.769531 174.234375 138.9375 174.183594 C 139.609375 173.988281 140.417969 174.351562 140.761719 175.003906 C 141.0625 175.582031 141.03125 176.003906 140.648438 176.472656 C 140.464844 176.699219 140.332031 176.902344 140.355469 176.925781 C 140.382812 176.949219 141.136719 177.144531 142.039062 177.363281 L 143.675781 177.757812 L 146.734375 174.417969 C 150.101562 170.746094 150.417969 170.484375 152.210938 169.832031 C 153.460938 169.378906 154.335938 169.230469 154.867188 169.382812 C 155.195312 169.480469 155.296875 169.582031 155.421875 169.945312 C 155.617188 170.515625 155.492188 171.539062 155.058594 172.890625 C 154.535156 174.527344 154.164062 175.03125 150.90625 178.488281 L 147.902344 181.679688 L 148.421875 183.28125 C 148.710938 184.160156 148.964844 184.902344 148.988281 184.921875 C 149.011719 184.945312 149.207031 184.800781 149.417969 184.597656 C 149.871094 184.167969 150.277344 184.117188 150.914062 184.410156 C 151.464844 184.667969 151.84375 185.21875 151.867188 185.796875 C 151.882812 186.199219 151.804688 186.324219 150.957031 187.253906 L 150.027344 188.269531 L 151.058594 191.492188 C 151.625 193.265625 152.429688 195.921875 152.921875 197.460938 C 153.414062 199 153.820312 200.414062 153.828125 200.601562 C 153.839844 200.878906 153.675781 201.125 152.957031 201.914062 L 152.070312 202.882812 L 147.960938 196.300781 C 145.679688 192.648438 143.5 189.1875 143.136719 188.601562 C 142.777344 188.015625 142.453125 187.550781 142.414062 187.566406 C 142.378906 187.582031 140.488281 189.550781 139.101562 191.003906 C 136.785156 193.433594 135.460938 194.632812 133.234375 196.316406 C 132.957031 196.527344 132.734375 196.769531 132.738281 196.855469 C 132.742188 196.945312 133.144531 198.273438 133.632812 199.808594 C 134.121094 201.34375 134.527344 202.761719 134.535156 202.964844 C 134.546875 203.253906 134.425781 203.476562 133.949219 204.03125 C 133.621094 204.417969 133.308594 204.734375 133.253906 204.734375 C 133.203125 204.738281 133.027344 204.53125 132.867188 204.273438 Z M 132.867188 204.273438 " fill-opacity="1" fill-rule="nonzero"/></g></g></g></g><g clip-path="url(#507a49c6e4)"><g clip-path="url(#6ca10adf68)"><path fill="#760461" d="M 154.15625 220.335938 L 161.332031 220.335938 L 161.332031 227.511719 L 154.15625 227.511719 Z M 154.15625 220.335938 " fill-opacity="1" fill-rule="nonzero"/></g></g><g clip-path="url(#bcc63800cb)"><g clip-path="url(#8c7c83111a)"><path fill="#760461" d="M 123.355469 220.335938 L 130.53125 220.335938 L 130.53125 227.511719 L 123.355469 227.511719 Z M 123.355469 220.335938 " fill-opacity="1" fill-rule="nonzero"/></g></g><g clip-path="url(#26b505331a)"><g clip-path="url(#6692a46c3f)"><path fill="#760461" d="M 134.203125 132.761719 L 136.578125 132.761719 L 136.578125 139.441406 L 134.203125 139.441406 Z M 134.203125 132.761719 " fill-opacity="1" fill-rule="nonzero"/></g></g><g clip-path="url(#f5f6525b30)"><g clip-path="url(#3f1f866f8c)"><path fill="#760461" d="M 147.261719 132.761719 L 149.632812 132.761719 L 149.632812 139.441406 L 147.261719 139.441406 Z M 147.261719 132.761719 " fill-opacity="1" fill-rule="nonzero"/></g></g><g clip-path="url(#880bbefea2)"><g clip-path="url(#7ac66844de)"><path fill="#760461" d="M 132.589844 125.441406 L 138.191406 125.441406 L 138.191406 132.113281 L 132.589844 132.113281 Z M 132.589844 125.441406 " fill-opacity="1" fill-rule="nonzero"/></g></g><g clip-path="url(#c71ecf9f34)"><g clip-path="url(#67c9ccb45a)"><path fill="#760461" d="M 132.589844 122.90625 L 151.238281 122.90625 L 151.238281 126.710938 L 132.589844 126.710938 Z M 132.589844 122.90625 " fill-opacity="1" fill-rule="nonzero"/></g></g><g clip-path="url(#6fb2d03755)"><g clip-path="url(#4b041b4ffe)"><path fill="#760461" d="M 145.644531 125.441406 L 151.246094 125.441406 L 151.246094 132.113281 L 145.644531 132.113281 Z M 145.644531 125.441406 " fill-opacity="1" fill-rule="nonzero"/></g></g><g fill="#800260" fill-opacity="1"><g transform="translate(203.158775, 158.632314)"><g><path d="M 1.65625 0 L 1.65625 -12.65625 L 14.59375 -12.65625 L 14.59375 -9.765625 L 5.6875 -9.765625 L 5.6875 -7.328125 L 12.0625 -7.328125 L 12.0625 -5.5625 L 5.6875 -5.5625 L 5.6875 -3.046875 L 14.59375 -3.046875 L 14.59375 0 Z M 1.65625 0 "/></g></g></g><g fill="#800260" fill-opacity="1"><g transform="translate(218.241547, 158.632314)"><g><path d="M 15.140625 0 L 15.140625 -5.53125 C 15.140625 -6.070312 15.046875 -6.492188 14.859375 -6.796875 C 14.671875 -7.109375 14.3125 -7.265625 13.78125 -7.265625 C 13.445312 -7.265625 13.144531 -7.179688 12.875 -7.015625 C 12.613281 -6.847656 12.390625 -6.628906 12.203125 -6.359375 C 12.023438 -6.097656 11.882812 -5.804688 11.78125 -5.484375 C 11.6875 -5.160156 11.640625 -4.835938 11.640625 -4.515625 L 11.640625 0 L 8.296875 0 L 8.296875 -5.53125 C 8.296875 -6.070312 8.203125 -6.492188 8.015625 -6.796875 C 7.835938 -7.109375 7.484375 -7.265625 6.953125 -7.265625 C 6.617188 -7.265625 6.316406 -7.179688 6.046875 -7.015625 C 5.785156 -6.847656 5.5625 -6.628906 5.375 -6.359375 C 5.195312 -6.097656 5.0625 -5.804688 4.96875 -5.484375 C 4.875 -5.160156 4.828125 -4.835938 4.828125 -4.515625 L 4.828125 0 L 1.46875 0 L 1.46875 -9.125 L 4.40625 -9.125 L 4.5 -6.796875 C 5.039062 -7.679688 5.628906 -8.320312 6.265625 -8.71875 C 6.898438 -9.113281 7.648438 -9.3125 8.515625 -9.3125 C 8.890625 -9.3125 9.238281 -9.25 9.5625 -9.125 C 9.882812 -9.007812 10.171875 -8.84375 10.421875 -8.625 C 10.671875 -8.40625 10.878906 -8.148438 11.046875 -7.859375 C 11.222656 -7.566406 11.347656 -7.253906 11.421875 -6.921875 C 11.960938 -7.742188 12.539062 -8.347656 13.15625 -8.734375 C 13.78125 -9.117188 14.515625 -9.3125 15.359375 -9.3125 C 15.898438 -9.3125 16.363281 -9.222656 16.75 -9.046875 C 17.144531 -8.878906 17.46875 -8.644531 17.71875 -8.34375 C 17.976562 -8.039062 18.171875 -7.679688 18.296875 -7.265625 C 18.421875 -6.859375 18.484375 -6.40625 18.484375 -5.90625 L 18.484375 0 Z M 15.140625 0 "/></g></g></g><g fill="#800260" fill-opacity="1"><g transform="translate(237.351494, 158.632314)"><g><path d="M 12.515625 -4.515625 C 12.515625 -3.867188 12.390625 -3.257812 12.140625 -2.6875 C 11.890625 -2.125 11.550781 -1.632812 11.125 -1.21875 C 10.707031 -0.800781 10.226562 -0.46875 9.6875 -0.21875 C 9.144531 0.03125 8.582031 0.15625 8 0.15625 C 6.570312 0.15625 5.484375 -0.273438 4.734375 -1.140625 L 4.734375 3.328125 L 1.46875 3.328125 L 1.46875 -9.125 L 3.890625 -9.125 L 4.21875 -7.5 C 4.382812 -7.757812 4.597656 -8 4.859375 -8.21875 C 5.117188 -8.4375 5.40625 -8.628906 5.71875 -8.796875 C 6.03125 -8.960938 6.367188 -9.09375 6.734375 -9.1875 C 7.097656 -9.28125 7.460938 -9.328125 7.828125 -9.328125 C 8.535156 -9.328125 9.175781 -9.203125 9.75 -8.953125 C 10.332031 -8.710938 10.828125 -8.378906 11.234375 -7.953125 C 11.648438 -7.535156 11.96875 -7.039062 12.1875 -6.46875 C 12.40625 -5.90625 12.515625 -5.300781 12.515625 -4.65625 Z M 9.21875 -4.890625 C 9.21875 -5.617188 9.019531 -6.207031 8.625 -6.65625 C 8.226562 -7.101562 7.691406 -7.328125 7.015625 -7.328125 C 6.347656 -7.328125 5.804688 -7.097656 5.390625 -6.640625 C 4.984375 -6.179688 4.78125 -5.570312 4.78125 -4.8125 L 4.78125 -4.25 C 4.78125 -3.875 4.84375 -3.535156 4.96875 -3.234375 C 5.09375 -2.941406 5.257812 -2.691406 5.46875 -2.484375 C 5.675781 -2.273438 5.910156 -2.113281 6.171875 -2 C 6.441406 -1.894531 6.722656 -1.84375 7.015625 -1.84375 C 7.691406 -1.84375 8.226562 -2.0625 8.625 -2.5 C 9.019531 -2.9375 9.21875 -3.535156 9.21875 -4.296875 Z M 9.21875 -4.890625 "/></g></g></g><g fill="#800260" fill-opacity="1"><g transform="translate(249.983765, 158.632314)"><g><path d="M 1.578125 -10.359375 L 1.578125 -12.46875 L 4.71875 -12.46875 L 4.71875 -10.359375 Z M 1.46875 0 L 1.46875 -9.125 L 4.828125 -9.125 L 4.828125 0 Z M 1.46875 0 "/></g></g></g><g fill="#800260" fill-opacity="1"><g transform="translate(255.568478, 158.632314)"><g><path d="M 8.828125 -6.265625 C 8.148438 -6.429688 7.554688 -6.5 7.046875 -6.46875 C 6.535156 -6.445312 6.113281 -6.359375 5.78125 -6.203125 C 5.445312 -6.054688 5.203125 -5.851562 5.046875 -5.59375 C 4.890625 -5.332031 4.8125 -5.050781 4.8125 -4.75 L 4.8125 0 L 1.46875 0 L 1.46875 -9.125 L 4.40625 -9.125 L 4.5 -6.84375 C 4.863281 -7.832031 5.398438 -8.507812 6.109375 -8.875 C 6.828125 -9.25 7.800781 -9.332031 9.03125 -9.125 Z M 8.828125 -6.265625 "/></g></g></g><g fill="#800260" fill-opacity="1"><g transform="translate(264.34454, 158.632314)"><g><path d="M 4.125 -4.21875 L 4.125 -4.109375 C 4.125 -3.460938 4.367188 -2.921875 4.859375 -2.484375 C 5.347656 -2.054688 6.046875 -1.84375 6.953125 -1.84375 C 7.660156 -1.84375 8.25 -1.941406 8.71875 -2.140625 C 9.1875 -2.335938 9.632812 -2.617188 10.0625 -2.984375 L 11.671875 -1.53125 C 11.066406 -0.988281 10.363281 -0.566406 9.5625 -0.265625 C 8.769531 0.0234375 7.773438 0.171875 6.578125 0.171875 C 5.734375 0.171875 4.957031 0.0546875 4.25 -0.171875 C 3.539062 -0.410156 2.929688 -0.734375 2.421875 -1.140625 C 1.921875 -1.554688 1.523438 -2.046875 1.234375 -2.609375 C 0.953125 -3.171875 0.8125 -3.789062 0.8125 -4.46875 L 0.8125 -4.59375 C 0.8125 -5.238281 0.941406 -5.847656 1.203125 -6.421875 C 1.472656 -7.003906 1.851562 -7.507812 2.34375 -7.9375 C 2.84375 -8.375 3.441406 -8.710938 4.140625 -8.953125 C 4.847656 -9.203125 5.632812 -9.328125 6.5 -9.328125 C 7.375 -9.328125 8.144531 -9.203125 8.8125 -8.953125 C 9.488281 -8.710938 10.054688 -8.378906 10.515625 -7.953125 C 10.972656 -7.523438 11.316406 -7.03125 11.546875 -6.46875 C 11.785156 -5.90625 11.90625 -5.300781 11.90625 -4.65625 L 11.90625 -4.21875 Z M 8.90625 -5.359375 C 8.90625 -5.585938 8.847656 -5.816406 8.734375 -6.046875 C 8.617188 -6.285156 8.457031 -6.492188 8.25 -6.671875 C 8.039062 -6.847656 7.785156 -6.992188 7.484375 -7.109375 C 7.191406 -7.222656 6.867188 -7.28125 6.515625 -7.28125 C 5.765625 -7.28125 5.179688 -7.085938 4.765625 -6.703125 C 4.347656 -6.316406 4.140625 -5.867188 4.140625 -5.359375 L 4.140625 -5.3125 L 8.90625 -5.3125 Z M 8.90625 -5.359375 "/></g></g></g><g fill="#800260" fill-opacity="1"><g transform="translate(180.799402, 181.882313)"><g><path d="M 12.734375 0 L 11.453125 -2.65625 L 5.125 -2.65625 L 3.8125 0 L 0.109375 0 L 6.453125 -12.65625 L 10.609375 -12.65625 L 17.0625 0 Z M 8.34375 -9.359375 L 6.1875 -4.984375 L 10.4375 -4.984375 Z M 8.34375 -9.359375 "/></g></g></g><g fill="#800260" fill-opacity="1"><g transform="translate(197.306882, 181.882313)"><g><path d="M 9.5625 0 L 9.234375 -1.609375 C 8.890625 -1.078125 8.398438 -0.648438 7.765625 -0.328125 C 7.140625 -0.00390625 6.445312 0.15625 5.6875 0.15625 C 4.957031 0.15625 4.296875 0.0351562 3.703125 -0.203125 C 3.109375 -0.441406 2.597656 -0.769531 2.171875 -1.1875 C 1.742188 -1.613281 1.410156 -2.109375 1.171875 -2.671875 C 0.929688 -3.234375 0.8125 -3.832031 0.8125 -4.46875 L 0.8125 -4.671875 C 0.8125 -5.316406 0.9375 -5.921875 1.1875 -6.484375 C 1.445312 -7.046875 1.785156 -7.539062 2.203125 -7.96875 C 2.628906 -8.394531 3.113281 -8.726562 3.65625 -8.96875 C 4.207031 -9.207031 4.78125 -9.328125 5.375 -9.328125 C 6.8125 -9.328125 7.890625 -8.890625 8.609375 -8.015625 L 8.609375 -12.65625 L 11.875 -12.65625 L 11.875 0 Z M 8.546875 -4.8125 C 8.546875 -5.164062 8.5 -5.492188 8.40625 -5.796875 C 8.3125 -6.109375 8.164062 -6.378906 7.96875 -6.609375 C 7.78125 -6.835938 7.550781 -7.015625 7.28125 -7.140625 C 7.007812 -7.265625 6.695312 -7.328125 6.34375 -7.328125 C 5.65625 -7.328125 5.113281 -7.101562 4.71875 -6.65625 C 4.332031 -6.21875 4.140625 -5.617188 4.140625 -4.859375 L 4.140625 -4.3125 C 4.140625 -3.550781 4.335938 -2.945312 4.734375 -2.5 C 5.140625 -2.0625 5.675781 -1.84375 6.34375 -1.84375 C 6.988281 -1.84375 7.515625 -2.0625 7.921875 -2.5 C 8.335938 -2.945312 8.546875 -3.53125 8.546875 -4.25 Z M 8.546875 -4.8125 "/></g></g></g><g fill="#800260" fill-opacity="1"><g transform="translate(209.749193, 181.882313)"><g><path d="M 7.453125 0 L 4.578125 0 L 0.109375 -9.125 L 3.609375 -9.125 L 5.34375 -4.765625 L 6.15625 -2.84375 L 6.96875 -4.765625 L 8.65625 -9.125 L 11.953125 -9.125 Z M 7.453125 0 "/></g></g></g><g fill="#800260" fill-opacity="1"><g transform="translate(221.222703, 181.882313)"><g><path d="M 4.125 -4.21875 L 4.125 -4.109375 C 4.125 -3.460938 4.367188 -2.921875 4.859375 -2.484375 C 5.347656 -2.054688 6.046875 -1.84375 6.953125 -1.84375 C 7.660156 -1.84375 8.25 -1.941406 8.71875 -2.140625 C 9.1875 -2.335938 9.632812 -2.617188 10.0625 -2.984375 L 11.671875 -1.53125 C 11.066406 -0.988281 10.363281 -0.566406 9.5625 -0.265625 C 8.769531 0.0234375 7.773438 0.171875 6.578125 0.171875 C 5.734375 0.171875 4.957031 0.0546875 4.25 -0.171875 C 3.539062 -0.410156 2.929688 -0.734375 2.421875 -1.140625 C 1.921875 -1.554688 1.523438 -2.046875 1.234375 -2.609375 C 0.953125 -3.171875 0.8125 -3.789062 0.8125 -4.46875 L 0.8125 -4.59375 C 0.8125 -5.238281 0.941406 -5.847656 1.203125 -6.421875 C 1.472656 -7.003906 1.851562 -7.507812 2.34375 -7.9375 C 2.84375 -8.375 3.441406 -8.710938 4.140625 -8.953125 C 4.847656 -9.203125 5.632812 -9.328125 6.5 -9.328125 C 7.375 -9.328125 8.144531 -9.203125 8.8125 -8.953125 C 9.488281 -8.710938 10.054688 -8.378906 10.515625 -7.953125 C 10.972656 -7.523438 11.316406 -7.03125 11.546875 -6.46875 C 11.785156 -5.90625 11.90625 -5.300781 11.90625 -4.65625 L 11.90625 -4.21875 Z M 8.90625 -5.359375 C 8.90625 -5.585938 8.847656 -5.816406 8.734375 -6.046875 C 8.617188 -6.285156 8.457031 -6.492188 8.25 -6.671875 C 8.039062 -6.847656 7.785156 -6.992188 7.484375 -7.109375 C 7.191406 -7.222656 6.867188 -7.28125 6.515625 -7.28125 C 5.765625 -7.28125 5.179688 -7.085938 4.765625 -6.703125 C 4.347656 -6.316406 4.140625 -5.867188 4.140625 -5.359375 L 4.140625 -5.3125 L 8.90625 -5.3125 Z M 8.90625 -5.359375 "/></g></g></g><g fill="#800260" fill-opacity="1"><g transform="translate(233.247099, 181.882313)"><g><path d="M 9 0 L 9 -5.53125 C 9 -6.070312 8.867188 -6.492188 8.609375 -6.796875 C 8.359375 -7.109375 7.945312 -7.265625 7.375 -7.265625 C 7.039062 -7.265625 6.71875 -7.1875 6.40625 -7.03125 C 6.101562 -6.875 5.832031 -6.671875 5.59375 -6.421875 C 5.363281 -6.179688 5.175781 -5.890625 5.03125 -5.546875 C 4.894531 -5.210938 4.828125 -4.867188 4.828125 -4.515625 L 4.828125 0 L 1.46875 0 L 1.46875 -9.125 L 4.40625 -9.125 L 4.5 -6.6875 C 5.070312 -7.625 5.734375 -8.296875 6.484375 -8.703125 C 7.242188 -9.109375 8.101562 -9.3125 9.0625 -9.3125 C 9.625 -9.3125 10.113281 -9.226562 10.53125 -9.0625 C 10.945312 -8.894531 11.289062 -8.660156 11.5625 -8.359375 C 11.832031 -8.054688 12.035156 -7.695312 12.171875 -7.28125 C 12.304688 -6.863281 12.375 -6.40625 12.375 -5.90625 L 12.375 0 Z M 9 0 "/></g></g></g><g fill="#800260" fill-opacity="1"><g transform="translate(246.240297, 181.882313)"><g><path d="M 5.859375 -6.9375 L 5.859375 -2.609375 C 5.859375 -2.097656 5.953125 -1.625 6.140625 -1.1875 C 6.328125 -0.75 6.632812 -0.351562 7.0625 0 L 3.34375 0 C 3.03125 -0.3125 2.804688 -0.675781 2.671875 -1.09375 C 2.546875 -1.519531 2.484375 -2.023438 2.484375 -2.609375 L 2.484375 -6.9375 L 0.5625 -6.9375 L 0.5625 -9.125 L 2.546875 -9.125 L 2.546875 -10.828125 L 5.859375 -11.578125 L 5.859375 -9.125 L 8.234375 -9.125 L 8.234375 -6.9375 Z M 5.859375 -6.9375 "/></g></g></g><g fill="#800260" fill-opacity="1"><g transform="translate(254.237519, 181.882313)"><g><path d="M 9.359375 0 L 9.265625 -2.3125 C 8.710938 -1.457031 8.082031 -0.828125 7.375 -0.421875 C 6.664062 -0.015625 5.816406 0.1875 4.828125 0.1875 C 3.648438 0.1875 2.785156 -0.113281 2.234375 -0.71875 C 1.679688 -1.332031 1.40625 -2.144531 1.40625 -3.15625 L 1.40625 -9.125 L 4.765625 -9.125 L 4.765625 -3.59375 C 4.765625 -3.03125 4.910156 -2.597656 5.203125 -2.296875 C 5.492188 -2.003906 5.929688 -1.859375 6.515625 -1.859375 C 6.847656 -1.859375 7.160156 -1.925781 7.453125 -2.0625 C 7.753906 -2.207031 8.015625 -2.398438 8.234375 -2.640625 C 8.453125 -2.878906 8.625 -3.15625 8.75 -3.46875 C 8.882812 -3.789062 8.953125 -4.128906 8.953125 -4.484375 L 8.953125 -9.125 L 12.3125 -9.125 L 12.3125 0 Z M 9.359375 0 "/></g></g></g><g fill="#800260" fill-opacity="1"><g transform="translate(267.173736, 181.882313)"><g><path d="M 8.828125 -6.265625 C 8.148438 -6.429688 7.554688 -6.5 7.046875 -6.46875 C 6.535156 -6.445312 6.113281 -6.359375 5.78125 -6.203125 C 5.445312 -6.054688 5.203125 -5.851562 5.046875 -5.59375 C 4.890625 -5.332031 4.8125 -5.050781 4.8125 -4.75 L 4.8125 0 L 1.46875 0 L 1.46875 -9.125 L 4.40625 -9.125 L 4.5 -6.84375 C 4.863281 -7.832031 5.398438 -8.507812 6.109375 -8.875 C 6.828125 -9.25 7.800781 -9.332031 9.03125 -9.125 Z M 8.828125 -6.265625 "/></g></g></g><g fill="#800260" fill-opacity="1"><g transform="translate(275.949798, 181.882313)"><g><path d="M 4.125 -4.21875 L 4.125 -4.109375 C 4.125 -3.460938 4.367188 -2.921875 4.859375 -2.484375 C 5.347656 -2.054688 6.046875 -1.84375 6.953125 -1.84375 C 7.660156 -1.84375 8.25 -1.941406 8.71875 -2.140625 C 9.1875 -2.335938 9.632812 -2.617188 10.0625 -2.984375 L 11.671875 -1.53125 C 11.066406 -0.988281 10.363281 -0.566406 9.5625 -0.265625 C 8.769531 0.0234375 7.773438 0.171875 6.578125 0.171875 C 5.734375 0.171875 4.957031 0.0546875 4.25 -0.171875 C 3.539062 -0.410156 2.929688 -0.734375 2.421875 -1.140625 C 1.921875 -1.554688 1.523438 -2.046875 1.234375 -2.609375 C 0.953125 -3.171875 0.8125 -3.789062 0.8125 -4.46875 L 0.8125 -4.59375 C 0.8125 -5.238281 0.941406 -5.847656 1.203125 -6.421875 C 1.472656 -7.003906 1.851562 -7.507812 2.34375 -7.9375 C 2.84375 -8.375 3.441406 -8.710938 4.140625 -8.953125 C 4.847656 -9.203125 5.632812 -9.328125 6.5 -9.328125 C 7.375 -9.328125 8.144531 -9.203125 8.8125 -8.953125 C 9.488281 -8.710938 10.054688 -8.378906 10.515625 -7.953125 C 10.972656 -7.523438 11.316406 -7.03125 11.546875 -6.46875 C 11.785156 -5.90625 11.90625 -5.300781 11.90625 -4.65625 L 11.90625 -4.21875 Z M 8.90625 -5.359375 C 8.90625 -5.585938 8.847656 -5.816406 8.734375 -6.046875 C 8.617188 -6.285156 8.457031 -6.492188 8.25 -6.671875 C 8.039062 -6.847656 7.785156 -6.992188 7.484375 -7.109375 C 7.191406 -7.222656 6.867188 -7.28125 6.515625 -7.28125 C 5.765625 -7.28125 5.179688 -7.085938 4.765625 -6.703125 C 4.347656 -6.316406 4.140625 -5.867188 4.140625 -5.359375 L 4.140625 -5.3125 L 8.90625 -5.3125 Z M 8.90625 -5.359375 "/></g></g></g><g fill="#800260" fill-opacity="1"><g transform="translate(287.974196, 181.882313)"><g><path d="M 9.390625 -6.34375 C 9.128906 -6.488281 8.847656 -6.625 8.546875 -6.75 C 8.253906 -6.875 7.945312 -6.984375 7.625 -7.078125 C 7.3125 -7.171875 6.992188 -7.242188 6.671875 -7.296875 C 6.347656 -7.347656 6.050781 -7.375 5.78125 -7.375 C 5.164062 -7.375 4.707031 -7.300781 4.40625 -7.15625 C 4.101562 -7.007812 3.953125 -6.828125 3.953125 -6.609375 C 3.953125 -6.367188 4.125 -6.1875 4.46875 -6.0625 C 4.8125 -5.945312 5.234375 -5.84375 5.734375 -5.75 C 6.242188 -5.65625 6.796875 -5.550781 7.390625 -5.4375 C 7.992188 -5.332031 8.550781 -5.175781 9.0625 -4.96875 C 9.570312 -4.769531 9.992188 -4.5 10.328125 -4.15625 C 10.671875 -3.8125 10.84375 -3.363281 10.84375 -2.8125 C 10.84375 -2.457031 10.734375 -2.101562 10.515625 -1.75 C 10.304688 -1.394531 9.992188 -1.070312 9.578125 -0.78125 C 9.171875 -0.5 8.660156 -0.269531 8.046875 -0.09375 C 7.429688 0.0820312 6.722656 0.171875 5.921875 0.171875 C 4.898438 0.171875 3.9375 0.0390625 3.03125 -0.21875 C 2.125 -0.476562 1.289062 -0.863281 0.53125 -1.375 L 1.78125 -3 C 2.414062 -2.644531 3.097656 -2.359375 3.828125 -2.140625 C 4.566406 -1.921875 5.304688 -1.8125 6.046875 -1.8125 C 7.242188 -1.8125 7.84375 -2.082031 7.84375 -2.625 C 7.84375 -2.863281 7.671875 -3.046875 7.328125 -3.171875 C 6.992188 -3.296875 6.570312 -3.40625 6.0625 -3.5 C 5.550781 -3.59375 5 -3.691406 4.40625 -3.796875 C 3.8125 -3.898438 3.257812 -4.046875 2.75 -4.234375 C 2.25 -4.421875 1.828125 -4.675781 1.484375 -5 C 1.140625 -5.320312 0.96875 -5.757812 0.96875 -6.3125 C 0.96875 -6.6875 1.066406 -7.054688 1.265625 -7.421875 C 1.472656 -7.785156 1.773438 -8.109375 2.171875 -8.390625 C 2.578125 -8.671875 3.078125 -8.894531 3.671875 -9.0625 C 4.273438 -9.238281 4.96875 -9.328125 5.75 -9.328125 C 6.800781 -9.328125 7.734375 -9.195312 8.546875 -8.9375 C 9.359375 -8.6875 10.066406 -8.363281 10.671875 -7.96875 Z M 9.390625 -6.34375 "/></g></g></g><g fill="#800260" fill-opacity="1"><g transform="translate(188.264201, 206.561924)"><g><path d="M 5.109375 0 L 3.296875 0 L 3.296875 -3.59375 L -0.03125 -9.15625 L 1.984375 -9.15625 L 4.203125 -5.265625 L 6.4375 -9.15625 L 8.4375 -9.15625 L 5.109375 -3.59375 Z M 5.109375 0 "/></g></g></g><g fill="#800260" fill-opacity="1"><g transform="translate(196.655958, 206.561924)"><g><path d="M 3.90625 0.125 C 3.226562 0.125 2.628906 -0.0195312 2.109375 -0.3125 C 1.585938 -0.601562 1.179688 -1.015625 0.890625 -1.546875 C 0.597656 -2.085938 0.453125 -2.707031 0.453125 -3.40625 C 0.453125 -4.082031 0.597656 -4.679688 0.890625 -5.203125 C 1.179688 -5.722656 1.582031 -6.128906 2.09375 -6.421875 C 2.613281 -6.722656 3.21875 -6.875 3.90625 -6.875 C 4.582031 -6.875 5.179688 -6.722656 5.703125 -6.421875 C 6.222656 -6.128906 6.628906 -5.722656 6.921875 -5.203125 C 7.210938 -4.679688 7.359375 -4.082031 7.359375 -3.40625 C 7.359375 -2.707031 7.210938 -2.09375 6.921875 -1.5625 C 6.628906 -1.03125 6.222656 -0.613281 5.703125 -0.3125 C 5.191406 -0.0195312 4.59375 0.125 3.90625 0.125 Z M 3.90625 -1.265625 C 4.425781 -1.265625 4.847656 -1.460938 5.171875 -1.859375 C 5.503906 -2.253906 5.671875 -2.769531 5.671875 -3.40625 C 5.671875 -3.8125 5.597656 -4.164062 5.453125 -4.46875 C 5.304688 -4.78125 5.097656 -5.023438 4.828125 -5.203125 C 4.566406 -5.390625 4.257812 -5.484375 3.90625 -5.484375 C 3.5625 -5.484375 3.25 -5.394531 2.96875 -5.21875 C 2.695312 -5.039062 2.484375 -4.796875 2.328125 -4.484375 C 2.179688 -4.171875 2.109375 -3.8125 2.109375 -3.40625 C 2.109375 -2.769531 2.273438 -2.253906 2.609375 -1.859375 C 2.953125 -1.460938 3.382812 -1.265625 3.90625 -1.265625 Z M 3.90625 -1.265625 "/></g></g></g><g fill="#800260" fill-opacity="1"><g transform="translate(204.472284, 206.561924)"><g><path d="M 3.078125 0.125 C 2.046875 0.125 1.347656 -0.242188 0.984375 -0.984375 C 0.878906 -1.203125 0.804688 -1.445312 0.765625 -1.71875 C 0.722656 -1.988281 0.703125 -2.367188 0.703125 -2.859375 L 0.703125 -6.734375 L 2.3125 -6.734375 L 2.3125 -2.84375 C 2.3125 -2.5 2.335938 -2.21875 2.390625 -2 C 2.441406 -1.789062 2.523438 -1.625 2.640625 -1.5 C 2.828125 -1.300781 3.109375 -1.203125 3.484375 -1.203125 C 3.953125 -1.203125 4.300781 -1.335938 4.53125 -1.609375 C 4.664062 -1.765625 4.757812 -1.976562 4.8125 -2.25 C 4.875 -2.519531 4.90625 -2.875 4.90625 -3.3125 L 4.90625 -6.734375 L 6.53125 -6.734375 L 6.53125 0 L 4.90625 0 L 4.90625 -0.859375 C 4.65625 -0.515625 4.390625 -0.265625 4.109375 -0.109375 C 3.828125 0.046875 3.484375 0.125 3.078125 0.125 Z M 3.078125 0.125 "/></g></g></g><g fill="#800260" fill-opacity="1"><g transform="translate(211.737142, 206.561924)"><g><path d="M 2.359375 0 L 0.734375 0 L 0.734375 -6.734375 L 2.359375 -6.734375 L 2.359375 -5.921875 C 2.609375 -6.273438 2.890625 -6.519531 3.203125 -6.65625 C 3.523438 -6.800781 3.878906 -6.875 4.265625 -6.875 L 4.46875 -6.875 L 4.46875 -5.3125 L 4.09375 -5.3125 C 3.820312 -5.3125 3.585938 -5.273438 3.390625 -5.203125 C 3.191406 -5.128906 3.023438 -5.03125 2.890625 -4.90625 C 2.710938 -4.726562 2.578125 -4.5 2.484375 -4.21875 C 2.398438 -3.9375 2.359375 -3.570312 2.359375 -3.125 Z M 2.359375 0 "/></g></g></g><g fill="#800260" fill-opacity="1"><g transform="translate(216.424539, 206.561924)"><g/></g></g><g fill="#800260" fill-opacity="1"><g transform="translate(219.637387, 206.561924)"><g><path d="M 4.171875 0 L 2.84375 0 C 2.34375 0 1.953125 -0.113281 1.671875 -0.34375 C 1.398438 -0.582031 1.265625 -0.957031 1.265625 -1.46875 L 1.265625 -5.4375 L 0.28125 -5.4375 L 0.28125 -6.734375 L 1.265625 -6.734375 L 1.265625 -9.15625 L 2.890625 -9.15625 L 2.890625 -6.734375 L 4.1875 -6.734375 L 4.1875 -5.4375 L 2.890625 -5.4375 L 2.890625 -1.96875 C 2.890625 -1.789062 2.921875 -1.640625 2.984375 -1.515625 C 3.046875 -1.398438 3.195312 -1.34375 3.4375 -1.34375 L 4.171875 -1.34375 Z M 4.171875 0 "/></g></g></g><g fill="#800260" fill-opacity="1"><g transform="translate(224.228871, 206.561924)"><g><path d="M 2.359375 0 L 0.734375 0 L 0.734375 -6.734375 L 2.359375 -6.734375 L 2.359375 -5.921875 C 2.609375 -6.273438 2.890625 -6.519531 3.203125 -6.65625 C 3.523438 -6.800781 3.878906 -6.875 4.265625 -6.875 L 4.46875 -6.875 L 4.46875 -5.3125 L 4.09375 -5.3125 C 3.820312 -5.3125 3.585938 -5.273438 3.390625 -5.203125 C 3.191406 -5.128906 3.023438 -5.03125 2.890625 -4.90625 C 2.710938 -4.726562 2.578125 -4.5 2.484375 -4.21875 C 2.398438 -3.9375 2.359375 -3.570312 2.359375 -3.125 Z M 2.359375 0 "/></g></g></g><g fill="#800260" fill-opacity="1"><g transform="translate(228.916268, 206.561924)"><g><path d="M 2.671875 0.125 C 2.046875 0.125 1.519531 -0.0390625 1.09375 -0.375 C 0.675781 -0.71875 0.46875 -1.207031 0.46875 -1.84375 C 0.46875 -2.207031 0.535156 -2.515625 0.671875 -2.765625 C 0.816406 -3.015625 1.003906 -3.222656 1.234375 -3.390625 C 1.453125 -3.535156 1.695312 -3.648438 1.96875 -3.734375 C 2.25 -3.828125 2.53125 -3.898438 2.8125 -3.953125 L 4.8125 -4.328125 C 4.789062 -4.742188 4.679688 -5.0625 4.484375 -5.28125 C 4.285156 -5.5 3.988281 -5.609375 3.59375 -5.609375 C 3.28125 -5.609375 3.003906 -5.515625 2.765625 -5.328125 C 2.535156 -5.148438 2.390625 -4.898438 2.328125 -4.578125 L 0.71875 -4.578125 C 0.800781 -5.109375 0.984375 -5.539062 1.265625 -5.875 C 1.554688 -6.21875 1.90625 -6.46875 2.3125 -6.625 C 2.726562 -6.789062 3.15625 -6.875 3.59375 -6.875 C 3.988281 -6.875 4.363281 -6.816406 4.71875 -6.703125 C 5.082031 -6.597656 5.390625 -6.425781 5.640625 -6.1875 C 5.898438 -5.957031 6.085938 -5.691406 6.203125 -5.390625 C 6.316406 -5.085938 6.382812 -4.773438 6.40625 -4.453125 C 6.425781 -4.128906 6.4375 -3.8125 6.4375 -3.5 L 6.4375 0 L 4.8125 0 L 4.8125 -0.90625 C 4.644531 -0.613281 4.441406 -0.390625 4.203125 -0.234375 C 3.992188 -0.0976562 3.757812 -0.00390625 3.5 0.046875 C 3.238281 0.0976562 2.960938 0.125 2.671875 0.125 Z M 3.078125 -1.140625 C 3.390625 -1.140625 3.675781 -1.203125 3.9375 -1.328125 C 4.289062 -1.503906 4.53125 -1.738281 4.65625 -2.03125 C 4.78125 -2.332031 4.84375 -2.703125 4.84375 -3.140625 L 3.234375 -2.8125 C 3.003906 -2.78125 2.816406 -2.726562 2.671875 -2.65625 C 2.523438 -2.59375 2.398438 -2.519531 2.296875 -2.4375 C 2.234375 -2.375 2.179688 -2.296875 2.140625 -2.203125 C 2.109375 -2.117188 2.09375 -2.019531 2.09375 -1.90625 C 2.09375 -1.65625 2.1875 -1.460938 2.375 -1.328125 C 2.5625 -1.203125 2.796875 -1.140625 3.078125 -1.140625 Z M 3.078125 -1.140625 "/></g></g></g><g fill="#800260" fill-opacity="1"><g transform="translate(236.001304, 206.561924)"><g><path d="M 3.90625 0 L 2.625 0 L 0.140625 -6.734375 L 1.875 -6.734375 L 3.265625 -2.484375 L 4.6875 -6.734375 L 6.40625 -6.734375 Z M 3.90625 0 "/></g></g></g><g fill="#800260" fill-opacity="1"><g transform="translate(242.546878, 206.561924)"><g><path d="M 3.890625 0.125 C 3.203125 0.125 2.597656 -0.0195312 2.078125 -0.3125 C 1.566406 -0.613281 1.164062 -1.023438 0.875 -1.546875 C 0.59375 -2.066406 0.453125 -2.660156 0.453125 -3.328125 C 0.453125 -3.765625 0.519531 -4.191406 0.65625 -4.609375 C 0.789062 -5.035156 1 -5.421875 1.28125 -5.765625 C 1.5625 -6.109375 1.910156 -6.378906 2.328125 -6.578125 C 2.753906 -6.773438 3.257812 -6.875 3.84375 -6.875 C 4.269531 -6.875 4.6875 -6.804688 5.09375 -6.671875 C 5.5 -6.535156 5.859375 -6.320312 6.171875 -6.03125 C 6.492188 -5.75 6.75 -5.390625 6.9375 -4.953125 C 7.125 -4.515625 7.21875 -3.992188 7.21875 -3.390625 L 7.21875 -3.03125 L 2.140625 -3.03125 C 2.148438 -2.882812 2.175781 -2.742188 2.21875 -2.609375 C 2.269531 -2.472656 2.328125 -2.351562 2.390625 -2.25 C 2.546875 -1.9375 2.757812 -1.691406 3.03125 -1.515625 C 3.300781 -1.347656 3.609375 -1.265625 3.953125 -1.265625 C 4.335938 -1.265625 4.65625 -1.363281 4.90625 -1.5625 C 5.164062 -1.757812 5.347656 -1.992188 5.453125 -2.265625 L 7.109375 -2.265625 C 6.984375 -1.835938 6.78125 -1.441406 6.5 -1.078125 C 6.21875 -0.710938 5.859375 -0.421875 5.421875 -0.203125 C 4.992188 0.015625 4.484375 0.125 3.890625 0.125 Z M 2.203125 -4.25 L 5.5625 -4.25 C 5.5625 -4.332031 5.539062 -4.429688 5.5 -4.546875 C 5.46875 -4.660156 5.40625 -4.769531 5.3125 -4.875 C 5.164062 -5.113281 4.960938 -5.289062 4.703125 -5.40625 C 4.453125 -5.53125 4.179688 -5.59375 3.890625 -5.59375 C 3.585938 -5.59375 3.316406 -5.53125 3.078125 -5.40625 C 2.835938 -5.289062 2.632812 -5.113281 2.46875 -4.875 C 2.382812 -4.769531 2.320312 -4.660156 2.28125 -4.546875 C 2.25 -4.429688 2.222656 -4.332031 2.203125 -4.25 Z M 2.203125 -4.25 "/></g></g></g><g fill="#800260" fill-opacity="1"><g transform="translate(250.21934, 206.561924)"><g><path d="M 3.3125 0 L 2.265625 0 C 1.773438 0 1.390625 -0.113281 1.109375 -0.34375 C 0.835938 -0.582031 0.703125 -0.957031 0.703125 -1.46875 L 0.703125 -9.15625 L 2.328125 -9.15625 L 2.328125 -1.953125 C 2.328125 -1.734375 2.367188 -1.578125 2.453125 -1.484375 C 2.535156 -1.390625 2.675781 -1.34375 2.875 -1.34375 L 3.3125 -1.34375 Z M 3.3125 0 "/></g></g></g><g fill="#800260" fill-opacity="1"><g transform="translate(253.839781, 206.561924)"><g/></g></g><g fill="#800260" fill-opacity="1"><g transform="translate(257.05263, 206.561924)"><g><path d="M 3.828125 2.5625 C 3.367188 2.5625 2.914062 2.5 2.46875 2.375 C 2.03125 2.25 1.648438 2.023438 1.328125 1.703125 C 1.015625 1.378906 0.804688 0.929688 0.703125 0.359375 L 2.34375 0.359375 C 2.445312 0.691406 2.617188 0.929688 2.859375 1.078125 C 3.109375 1.222656 3.425781 1.296875 3.8125 1.296875 C 4.363281 1.296875 4.757812 1.171875 5 0.921875 C 5.25 0.671875 5.375 0.347656 5.375 -0.046875 L 5.375 -1 C 5.101562 -0.613281 4.816406 -0.351562 4.515625 -0.21875 C 4.210938 -0.0820312 3.859375 -0.015625 3.453125 -0.015625 C 2.867188 -0.015625 2.351562 -0.160156 1.90625 -0.453125 C 1.46875 -0.753906 1.125 -1.160156 0.875 -1.671875 C 0.625 -2.179688 0.5 -2.765625 0.5 -3.421875 C 0.5 -4.085938 0.625 -4.679688 0.875 -5.203125 C 1.125 -5.722656 1.46875 -6.128906 1.90625 -6.421875 C 2.351562 -6.722656 2.867188 -6.875 3.453125 -6.875 C 3.859375 -6.875 4.210938 -6.800781 4.515625 -6.65625 C 4.816406 -6.507812 5.101562 -6.25 5.375 -5.875 L 5.375 -6.734375 L 7 -6.734375 L 7 -0.4375 C 7 0.332031 6.859375 0.9375 6.578125 1.375 C 6.296875 1.8125 5.914062 2.117188 5.4375 2.296875 C 4.957031 2.472656 4.421875 2.5625 3.828125 2.5625 Z M 3.84375 -1.40625 C 4.1875 -1.40625 4.488281 -1.492188 4.75 -1.671875 C 5.007812 -1.847656 5.210938 -2.085938 5.359375 -2.390625 C 5.503906 -2.703125 5.578125 -3.050781 5.578125 -3.4375 C 5.578125 -3.832031 5.503906 -4.179688 5.359375 -4.484375 C 5.210938 -4.796875 5.007812 -5.039062 4.75 -5.21875 C 4.488281 -5.394531 4.1875 -5.484375 3.84375 -5.484375 C 3.5 -5.484375 3.195312 -5.390625 2.9375 -5.203125 C 2.6875 -5.023438 2.488281 -4.78125 2.34375 -4.46875 C 2.207031 -4.164062 2.140625 -3.820312 2.140625 -3.4375 C 2.140625 -3.0625 2.207031 -2.71875 2.34375 -2.40625 C 2.488281 -2.09375 2.6875 -1.847656 2.9375 -1.671875 C 3.195312 -1.492188 3.5 -1.40625 3.84375 -1.40625 Z M 3.84375 -1.40625 "/></g></g></g><g fill="#800260" fill-opacity="1"><g transform="translate(264.773042, 206.561924)"><g><path d="M 3.078125 0.125 C 2.046875 0.125 1.347656 -0.242188 0.984375 -0.984375 C 0.878906 -1.203125 0.804688 -1.445312 0.765625 -1.71875 C 0.722656 -1.988281 0.703125 -2.367188 0.703125 -2.859375 L 0.703125 -6.734375 L 2.3125 -6.734375 L 2.3125 -2.84375 C 2.3125 -2.5 2.335938 -2.21875 2.390625 -2 C 2.441406 -1.789062 2.523438 -1.625 2.640625 -1.5 C 2.828125 -1.300781 3.109375 -1.203125 3.484375 -1.203125 C 3.953125 -1.203125 4.300781 -1.335938 4.53125 -1.609375 C 4.664062 -1.765625 4.757812 -1.976562 4.8125 -2.25 C 4.875 -2.519531 4.90625 -2.875 4.90625 -3.3125 L 4.90625 -6.734375 L 6.53125 -6.734375 L 6.53125 0 L 4.90625 0 L 4.90625 -0.859375 C 4.65625 -0.515625 4.390625 -0.265625 4.109375 -0.109375 C 3.828125 0.046875 3.484375 0.125 3.078125 0.125 Z M 3.078125 0.125 "/></g></g></g><g fill="#800260" fill-opacity="1"><g transform="translate(272.0379, 206.561924)"><g><path d="M 1.546875 -7.46875 C 1.273438 -7.46875 1.039062 -7.550781 0.84375 -7.71875 C 0.644531 -7.894531 0.546875 -8.125 0.546875 -8.40625 C 0.546875 -8.675781 0.644531 -8.894531 0.84375 -9.0625 C 1.039062 -9.238281 1.273438 -9.328125 1.546875 -9.328125 C 1.816406 -9.328125 2.050781 -9.238281 2.25 -9.0625 C 2.445312 -8.894531 2.546875 -8.675781 2.546875 -8.40625 C 2.546875 -8.125 2.445312 -7.894531 2.25 -7.71875 C 2.050781 -7.550781 1.816406 -7.46875 1.546875 -7.46875 Z M 2.359375 0 L 0.734375 0 L 0.734375 -6.734375 L 2.359375 -6.734375 Z M 2.359375 0 "/></g></g></g><g fill="#800260" fill-opacity="1"><g transform="translate(275.13086, 206.561924)"><g><path d="M 3.4375 0.125 C 2.851562 0.125 2.335938 -0.0195312 1.890625 -0.3125 C 1.441406 -0.601562 1.09375 -1.015625 0.84375 -1.546875 C 0.601562 -2.078125 0.484375 -2.6875 0.484375 -3.375 C 0.484375 -4.0625 0.601562 -4.664062 0.84375 -5.1875 C 1.09375 -5.71875 1.441406 -6.128906 1.890625 -6.421875 C 2.335938 -6.722656 2.851562 -6.875 3.4375 -6.875 C 3.84375 -6.875 4.191406 -6.800781 4.484375 -6.65625 C 4.785156 -6.519531 5.078125 -6.257812 5.359375 -5.875 L 5.359375 -9.15625 L 6.96875 -9.15625 L 6.96875 0 L 5.359375 0 L 5.359375 -0.859375 C 5.078125 -0.472656 4.785156 -0.210938 4.484375 -0.078125 C 4.191406 0.0546875 3.84375 0.125 3.4375 0.125 Z M 3.8125 -1.265625 C 4.332031 -1.265625 4.753906 -1.457031 5.078125 -1.84375 C 5.398438 -2.238281 5.5625 -2.75 5.5625 -3.375 C 5.5625 -4 5.398438 -4.503906 5.078125 -4.890625 C 4.753906 -5.285156 4.332031 -5.484375 3.8125 -5.484375 C 3.300781 -5.484375 2.890625 -5.285156 2.578125 -4.890625 C 2.265625 -4.492188 2.109375 -3.988281 2.109375 -3.375 C 2.109375 -2.757812 2.265625 -2.253906 2.578125 -1.859375 C 2.890625 -1.460938 3.300781 -1.265625 3.8125 -1.265625 Z M 3.8125 -1.265625 "/></g></g></g><g fill="#800260" fill-opacity="1"><g transform="translate(282.839291, 206.561924)"><g><path d="M 3.890625 0.125 C 3.203125 0.125 2.597656 -0.0195312 2.078125 -0.3125 C 1.566406 -0.613281 1.164062 -1.023438 0.875 -1.546875 C 0.59375 -2.066406 0.453125 -2.660156 0.453125 -3.328125 C 0.453125 -3.765625 0.519531 -4.191406 0.65625 -4.609375 C 0.789062 -5.035156 1 -5.421875 1.28125 -5.765625 C 1.5625 -6.109375 1.910156 -6.378906 2.328125 -6.578125 C 2.753906 -6.773438 3.257812 -6.875 3.84375 -6.875 C 4.269531 -6.875 4.6875 -6.804688 5.09375 -6.671875 C 5.5 -6.535156 5.859375 -6.320312 6.171875 -6.03125 C 6.492188 -5.75 6.75 -5.390625 6.9375 -4.953125 C 7.125 -4.515625 7.21875 -3.992188 7.21875 -3.390625 L 7.21875 -3.03125 L 2.140625 -3.03125 C 2.148438 -2.882812 2.175781 -2.742188 2.21875 -2.609375 C 2.269531 -2.472656 2.328125 -2.351562 2.390625 -2.25 C 2.546875 -1.9375 2.757812 -1.691406 3.03125 -1.515625 C 3.300781 -1.347656 3.609375 -1.265625 3.953125 -1.265625 C 4.335938 -1.265625 4.65625 -1.363281 4.90625 -1.5625 C 5.164062 -1.757812 5.347656 -1.992188 5.453125 -2.265625 L 7.109375 -2.265625 C 6.984375 -1.835938 6.78125 -1.441406 6.5 -1.078125 C 6.21875 -0.710938 5.859375 -0.421875 5.421875 -0.203125 C 4.992188 0.015625 4.484375 0.125 3.890625 0.125 Z M 2.203125 -4.25 L 5.5625 -4.25 C 5.5625 -4.332031 5.539062 -4.429688 5.5 -4.546875 C 5.46875 -4.660156 5.40625 -4.769531 5.3125 -4.875 C 5.164062 -5.113281 4.960938 -5.289062 4.703125 -5.40625 C 4.453125 -5.53125 4.179688 -5.59375 3.890625 -5.59375 C 3.585938 -5.59375 3.316406 -5.53125 3.078125 -5.40625 C 2.835938 -5.289062 2.632812 -5.113281 2.46875 -4.875 C 2.382812 -4.769531 2.320312 -4.660156 2.28125 -4.546875 C 2.25 -4.429688 2.222656 -4.332031 2.203125 -4.25 Z M 2.203125 -4.25 "/></g></g></g></svg>