<svg xmlns="http://www.w3.org/2000/svg" xmlns:xlink="http://www.w3.org/1999/xlink" width="500" zoomAndPan="magnify" viewBox="0 0 375 374.999991" height="500" preserveAspectRatio="xMidYMid meet" version="1.0"><defs><clipPath id="e0d1fa083f"><path d="M 105.269531 82.375 L 283.867188 82.375 L 283.867188 318 L 105.269531 318 Z M 105.269531 82.375 " clip-rule="nonzero"/></clipPath><clipPath id="8ec9bf25ed"><path d="M 112.019531 82.375 L 277.117188 82.375 C 280.84375 82.375 283.867188 85.394531 283.867188 89.125 L 283.867188 311.039062 C 283.867188 314.769531 280.84375 317.789062 277.117188 317.789062 L 112.019531 317.789062 C 108.292969 317.789062 105.269531 314.769531 105.269531 311.039062 L 105.269531 89.125 C 105.269531 85.394531 108.292969 82.375 112.019531 82.375 Z M 112.019531 82.375 " clip-rule="nonzero"/></clipPath><clipPath id="c876f9ae87"><path d="M 103 192 L 228 192 L 228 375 L 103 375 Z M 103 192 " clip-rule="nonzero"/></clipPath><clipPath id="4aa9e84b11"><path d="M 213.53125 192.171875 L 338.375 303.238281 L 227.308594 428.085938 L 102.460938 317.015625 Z M 213.53125 192.171875 " clip-rule="nonzero"/></clipPath><clipPath id="a2a1d7b5ea"><path d="M 103.265625 316.113281 L 228.113281 427.179688 L 339.179688 302.332031 L 214.335938 191.265625 Z M 103.265625 316.113281 " clip-rule="nonzero"/></clipPath><clipPath id="5fb08fc672"><path d="M 0 192 L 215 192 L 215 317 L 0 317 Z M 0 192 " clip-rule="nonzero"/></clipPath><clipPath id="84e5fb0e53"><path d="M 90.847656 82.378906 L 215.691406 193.445312 L 104.625 318.292969 L -20.21875 207.222656 Z M 90.847656 82.378906 " clip-rule="nonzero"/></clipPath><clipPath id="849dc32964"><path d="M 104.527344 316.582031 L -20.320312 205.515625 L 90.746094 80.667969 L 215.59375 191.734375 Z M 104.527344 316.582031 " clip-rule="nonzero"/></clipPath><clipPath id="1001d641ce"><path d="M 131 170 L 237 170 L 237 281 L 131 281 Z M 131 170 " clip-rule="nonzero"/></clipPath><clipPath id="37f4fe41b2"><path d="M 128.953125 174.921875 L 235.429688 170.785156 L 239.566406 277.261719 L 133.089844 281.398438 Z M 128.953125 174.921875 " clip-rule="nonzero"/></clipPath><clipPath id="de25b8aafd"><path d="M 128.953125 174.921875 L 235.429688 170.785156 L 239.566406 277.261719 L 133.089844 281.398438 Z M 128.953125 174.921875 " clip-rule="nonzero"/></clipPath><clipPath id="24529c96d0"><path d="M 128.953125 174.953125 L 235.992188 170.792969 L 240.136719 277.398438 L 133.097656 281.558594 Z M 128.953125 174.953125 " clip-rule="nonzero"/></clipPath><clipPath id="4d402bb697"><path d="M 231.96875 328.375 L 254.113281 328.375 L 254.113281 350.519531 L 231.96875 350.519531 Z M 231.96875 328.375 " clip-rule="nonzero"/></clipPath><clipPath id="7541e8ec1d"><path d="M 243.039062 328.375 C 236.925781 328.375 231.96875 333.332031 231.96875 339.449219 C 231.96875 345.5625 236.925781 350.519531 243.039062 350.519531 C 249.15625 350.519531 254.113281 345.5625 254.113281 339.449219 C 254.113281 333.332031 249.15625 328.375 243.039062 328.375 Z M 243.039062 328.375 " clip-rule="nonzero"/></clipPath><clipPath id="dd4b0cb19d"><path d="M 136.894531 328.375 L 159.039062 328.375 L 159.039062 350.519531 L 136.894531 350.519531 Z M 136.894531 328.375 " clip-rule="nonzero"/></clipPath><clipPath id="b6faa83fde"><path d="M 147.96875 328.375 C 141.851562 328.375 136.894531 333.332031 136.894531 339.449219 C 136.894531 345.5625 141.851562 350.519531 147.96875 350.519531 C 154.082031 350.519531 159.039062 345.5625 159.039062 339.449219 C 159.039062 333.332031 154.082031 328.375 147.96875 328.375 Z M 147.96875 328.375 " clip-rule="nonzero"/></clipPath><clipPath id="f628e3b908"><path d="M 170.382812 58.066406 L 177.703125 58.066406 L 177.703125 78.679688 L 170.382812 78.679688 Z M 170.382812 58.066406 " clip-rule="nonzero"/></clipPath><clipPath id="802f7a7128"><path d="M 171.132812 58.066406 L 176.953125 58.066406 C 177.367188 58.066406 177.703125 58.402344 177.703125 58.816406 L 177.703125 77.925781 C 177.703125 78.339844 177.367188 78.675781 176.953125 78.675781 L 171.132812 78.675781 C 170.71875 78.675781 170.382812 78.339844 170.382812 77.925781 L 170.382812 58.816406 C 170.382812 58.402344 170.71875 58.066406 171.132812 58.066406 Z M 171.132812 58.066406 " clip-rule="nonzero"/></clipPath><clipPath id="ca0d35205f"><path d="M 210.679688 58.066406 L 217.996094 58.066406 L 217.996094 78.679688 L 210.679688 78.679688 Z M 210.679688 58.066406 " clip-rule="nonzero"/></clipPath><clipPath id="795cdf0639"><path d="M 211.429688 58.066406 L 217.246094 58.066406 C 217.660156 58.066406 217.996094 58.402344 217.996094 58.816406 L 217.996094 77.925781 C 217.996094 78.339844 217.660156 78.675781 217.246094 78.675781 L 211.429688 78.675781 C 211.015625 78.675781 210.679688 78.339844 210.679688 77.925781 L 210.679688 58.816406 C 210.679688 58.402344 211.015625 58.066406 211.429688 58.066406 Z M 211.429688 58.066406 " clip-rule="nonzero"/></clipPath><clipPath id="26b9adb88b"><path d="M 165.402344 35.476562 L 182.683594 35.476562 L 182.683594 56.136719 L 165.402344 56.136719 Z M 165.402344 35.476562 " clip-rule="nonzero"/></clipPath><clipPath id="be36dff49e"><path d="M 167.652344 35.476562 L 180.433594 35.476562 C 181.675781 35.476562 182.683594 36.484375 182.683594 37.726562 L 182.683594 53.835938 C 182.683594 55.082031 181.675781 56.085938 180.433594 56.085938 L 167.652344 56.085938 C 166.410156 56.085938 165.402344 55.082031 165.402344 53.835938 L 165.402344 37.726562 C 165.402344 36.484375 166.410156 35.476562 167.652344 35.476562 Z M 167.652344 35.476562 " clip-rule="nonzero"/></clipPath><clipPath id="7d16e39355"><path d="M 165.402344 27.644531 L 223 27.644531 L 223 39.394531 L 165.402344 39.394531 Z M 165.402344 27.644531 " clip-rule="nonzero"/></clipPath><clipPath id="007189341e"><path d="M 167.652344 27.644531 L 220.730469 27.644531 C 221.972656 27.644531 222.980469 28.652344 222.980469 29.894531 L 222.980469 37.144531 C 222.980469 38.386719 221.972656 39.394531 220.730469 39.394531 L 167.652344 39.394531 C 166.410156 39.394531 165.402344 38.386719 165.402344 37.144531 L 165.402344 29.894531 C 165.402344 28.652344 166.410156 27.644531 167.652344 27.644531 Z M 167.652344 27.644531 " clip-rule="nonzero"/></clipPath><clipPath id="5bae65ad9f"><path d="M 205.695312 35.476562 L 222.980469 35.476562 L 222.980469 56.136719 L 205.695312 56.136719 Z M 205.695312 35.476562 " clip-rule="nonzero"/></clipPath><clipPath id="994da78b3a"><path d="M 207.945312 35.476562 L 220.730469 35.476562 C 221.972656 35.476562 222.980469 36.484375 222.980469 37.726562 L 222.980469 53.835938 C 222.980469 55.082031 221.972656 56.085938 220.730469 56.085938 L 207.945312 56.085938 C 206.703125 56.085938 205.695312 55.082031 205.695312 53.835938 L 205.695312 37.726562 C 205.695312 36.484375 206.703125 35.476562 207.945312 35.476562 Z M 207.945312 35.476562 " clip-rule="nonzero"/></clipPath></defs><g clip-path="url(#e0d1fa083f)"><g clip-path="url(#8ec9bf25ed)"><path fill="#760461" d="M 105.269531 82.375 L 283.867188 82.375 L 283.867188 317.480469 L 105.269531 317.480469 Z M 105.269531 82.375 " fill-opacity="1" fill-rule="nonzero"/></g></g><g clip-path="url(#c876f9ae87)"><g clip-path="url(#4aa9e84b11)"><g clip-path="url(#a2a1d7b5ea)"><path fill="#ffffff" d="M 103.28125 316.125 L 227.195312 426.363281 C 222.96875 422.601562 218.945312 418.640625 215.117188 414.472656 C 211.359375 410.375 207.8125 406.101562 204.484375 401.648438 C 201.21875 397.277344 198.136719 392.695312 195.324219 388.027344 C 192.542969 383.410156 189.957031 378.597656 187.644531 373.726562 C 183.039062 364.027344 179.410156 353.976562 176.757812 343.570312 C 174.125 333.242188 172.5 322.757812 171.878906 312.117188 C 171.257812 301.476562 171.652344 290.875 173.0625 280.3125 C 174.484375 269.667969 176.917969 259.261719 180.363281 249.089844 C 182.097656 243.984375 184.101562 238.90625 186.328125 233.996094 C 188.574219 229.03125 191.105469 224.121094 193.839844 219.402344 C 196.628906 214.589844 199.652344 209.933594 202.910156 205.425781 C 206.230469 200.832031 209.777344 196.417969 213.542969 192.183594 Z M 103.28125 316.125 " fill-opacity="1" fill-rule="nonzero"/></g></g></g><g clip-path="url(#5fb08fc672)"><g clip-path="url(#84e5fb0e53)"><g clip-path="url(#849dc32964)"><path fill="#ffffff" d="M 104.511719 316.570312 L -19.402344 206.332031 C -15.175781 210.089844 -10.769531 213.625 -6.1875 216.941406 C -1.679688 220.199219 2.980469 223.222656 7.789062 226.011719 C 12.507812 228.746094 17.421875 231.273438 22.386719 233.523438 C 27.292969 235.75 32.371094 237.753906 37.480469 239.488281 C 47.648438 242.929688 58.054688 245.363281 68.699219 246.789062 C 79.265625 248.199219 89.867188 248.59375 100.507812 247.972656 C 111.144531 247.351562 121.628906 245.722656 131.960938 243.09375 C 142.363281 240.441406 152.414062 236.8125 162.117188 232.207031 C 166.988281 229.890625 171.796875 227.308594 176.414062 224.527344 C 181.082031 221.714844 185.664062 218.632812 190.035156 215.367188 C 194.488281 212.035156 198.765625 208.492188 202.863281 204.730469 C 207.035156 200.898438 211.007812 196.863281 214.773438 192.628906 Z M 104.511719 316.570312 " fill-opacity="1" fill-rule="nonzero"/></g></g></g><g clip-path="url(#1001d641ce)"><g clip-path="url(#37f4fe41b2)"><g clip-path="url(#de25b8aafd)"><g clip-path="url(#24529c96d0)"><path fill="#ffffff" d="M 166.257812 278.800781 C 165.765625 278.011719 163.496094 274.410156 161.21875 270.792969 C 158.9375 267.175781 156.839844 263.800781 156.554688 263.289062 C 156.269531 262.777344 155.945312 262.363281 155.832031 262.367188 C 155.71875 262.371094 154.515625 262.804688 153.160156 263.332031 C 149.375 264.800781 148.742188 264.210938 150.015625 260.394531 C 150.449219 259.101562 150.796875 257.933594 150.792969 257.800781 C 150.785156 257.667969 146.507812 255.324219 141.28125 252.59375 L 131.777344 247.628906 L 133.890625 245.390625 C 136.730469 242.382812 135.675781 242.378906 148.527344 245.425781 C 152.804688 246.441406 156.492188 247.1875 156.726562 247.089844 C 156.960938 246.988281 158.386719 245.027344 159.894531 242.726562 C 164.3125 235.988281 165.980469 233.882812 173.441406 225.683594 C 177.332031 221.40625 182.742188 215.371094 182.773438 215.25 C 182.808594 215.125 171.8125 209.230469 158.335938 202.148438 C 144.863281 195.066406 134.039062 189.410156 133.925781 189.246094 C 133.8125 189.082031 134.917969 187.679688 136.382812 186.132812 C 138.5625 183.824219 139.238281 183.308594 140.125 183.277344 C 140.722656 183.253906 143.753906 183.84375 146.867188 184.585938 C 149.980469 185.328125 158.167969 187.070312 165.421875 188.792969 L 178.617188 191.921875 L 181.335938 189.058594 C 182.832031 187.484375 184.472656 186.074219 184.984375 185.925781 C 187.066406 185.316406 189.566406 186.433594 190.617188 188.449219 C 191.546875 190.234375 191.449219 191.539062 190.269531 192.988281 C 189.699219 193.6875 189.296875 194.316406 189.371094 194.386719 C 189.445312 194.457031 191.78125 195.0625 194.5625 195.734375 L 199.613281 196.953125 L 209.0625 186.648438 C 219.457031 175.308594 220.421875 174.5 225.957031 172.492188 C 229.824219 171.089844 232.511719 170.636719 234.15625 171.109375 C 235.171875 171.402344 235.484375 171.714844 235.867188 172.839844 C 236.46875 174.601562 236.082031 177.757812 234.753906 181.925781 C 233.140625 186.976562 231.984375 188.535156 221.9375 199.207031 L 212.664062 209.054688 L 214.269531 214 C 215.152344 216.71875 215.9375 219 216.011719 219.070312 C 216.085938 219.140625 216.683594 218.691406 217.335938 218.070312 C 218.742188 216.742188 219.992188 216.582031 221.953125 217.492188 C 223.65625 218.28125 224.832031 219.988281 224.902344 221.769531 C 224.949219 223.015625 224.710938 223.390625 222.089844 226.261719 L 219.222656 229.394531 L 222.402344 239.347656 C 224.148438 244.820312 226.632812 253.015625 228.152344 257.769531 C 229.671875 262.519531 230.929688 266.882812 230.953125 267.464844 C 230.984375 268.320312 230.484375 269.074219 228.257812 271.507812 L 225.523438 274.5 L 212.84375 254.195312 C 205.800781 242.910156 199.070312 232.234375 197.957031 230.425781 C 196.84375 228.617188 195.839844 227.179688 195.726562 227.226562 C 195.613281 227.273438 189.769531 233.359375 185.5 237.839844 C 178.347656 245.339844 174.257812 249.042969 167.390625 254.238281 C 166.535156 254.882812 165.84375 255.632812 165.855469 255.902344 C 165.867188 256.175781 167.109375 260.273438 168.617188 265.011719 C 170.128906 269.75 171.382812 274.132812 171.40625 274.757812 C 171.441406 275.652344 171.0625 276.335938 169.597656 278.050781 C 168.578125 279.238281 167.613281 280.214844 167.449219 280.222656 C 167.289062 280.226562 166.753906 279.589844 166.257812 278.800781 Z M 166.257812 278.800781 " fill-opacity="1" fill-rule="nonzero"/></g></g></g></g><g clip-path="url(#4d402bb697)"><g clip-path="url(#7541e8ec1d)"><path fill="#760461" d="M 231.96875 328.375 L 254.113281 328.375 L 254.113281 350.519531 L 231.96875 350.519531 Z M 231.96875 328.375 " fill-opacity="1" fill-rule="nonzero"/></g></g><g clip-path="url(#dd4b0cb19d)"><g clip-path="url(#b6faa83fde)"><path fill="#760461" d="M 136.894531 328.375 L 159.039062 328.375 L 159.039062 350.519531 L 136.894531 350.519531 Z M 136.894531 328.375 " fill-opacity="1" fill-rule="nonzero"/></g></g><g clip-path="url(#f628e3b908)"><g clip-path="url(#802f7a7128)"><path fill="#760461" d="M 170.382812 58.066406 L 177.703125 58.066406 L 177.703125 78.679688 L 170.382812 78.679688 Z M 170.382812 58.066406 " fill-opacity="1" fill-rule="nonzero"/></g></g><g clip-path="url(#ca0d35205f)"><g clip-path="url(#795cdf0639)"><path fill="#760461" d="M 210.679688 58.066406 L 217.996094 58.066406 L 217.996094 78.679688 L 210.679688 78.679688 Z M 210.679688 58.066406 " fill-opacity="1" fill-rule="nonzero"/></g></g><g clip-path="url(#26b9adb88b)"><g clip-path="url(#be36dff49e)"><path fill="#760461" d="M 165.402344 35.476562 L 182.683594 35.476562 L 182.683594 56.070312 L 165.402344 56.070312 Z M 165.402344 35.476562 " fill-opacity="1" fill-rule="nonzero"/></g></g><g clip-path="url(#7d16e39355)"><g clip-path="url(#007189341e)"><path fill="#760461" d="M 165.402344 27.644531 L 222.957031 27.644531 L 222.957031 39.394531 L 165.402344 39.394531 Z M 165.402344 27.644531 " fill-opacity="1" fill-rule="nonzero"/></g></g><g clip-path="url(#5bae65ad9f)"><g clip-path="url(#994da78b3a)"><path fill="#760461" d="M 205.695312 35.476562 L 222.980469 35.476562 L 222.980469 56.070312 L 205.695312 56.070312 Z M 205.695312 35.476562 " fill-opacity="1" fill-rule="nonzero"/></g></g></svg>