<svg xmlns="http://www.w3.org/2000/svg" xmlns:xlink="http://www.w3.org/1999/xlink" width="500" zoomAndPan="magnify" viewBox="0 0 375 374.999991" height="500" preserveAspectRatio="xMidYMid meet" version="1.0"><defs><clipPath id="d71e382e9b"><path d="M 170.078125 140.636719 L 227.941406 140.636719 L 227.941406 217 L 170.078125 217 Z M 170.078125 140.636719 " clip-rule="nonzero"/></clipPath><clipPath id="8f3768d742"><path d="M 176.828125 140.636719 L 221.191406 140.636719 C 224.917969 140.636719 227.941406 143.65625 227.941406 147.386719 L 227.941406 210.15625 C 227.941406 213.882812 224.917969 216.90625 221.191406 216.90625 L 176.828125 216.90625 C 173.101562 216.90625 170.078125 213.882812 170.078125 210.15625 L 170.078125 147.386719 C 170.078125 143.65625 173.101562 140.636719 176.828125 140.636719 Z M 176.828125 140.636719 " clip-rule="nonzero"/></clipPath><clipPath id="0075751a87"><path d="M 169 176 L 210 176 L 210 253 L 169 253 Z M 169 176 " clip-rule="nonzero"/></clipPath><clipPath id="ab9bcd3e95"><path d="M 205.152344 176.207031 L 245.601562 212.191406 L 209.617188 252.640625 L 169.171875 216.65625 Z M 205.152344 176.207031 " clip-rule="nonzero"/></clipPath><clipPath id="ae65b414e3"><path d="M 169.429688 216.363281 L 209.878906 252.347656 L 245.863281 211.898438 L 205.414062 175.914062 Z M 169.429688 216.363281 " clip-rule="nonzero"/></clipPath><clipPath id="7758414d28"><path d="M 129 176 L 206 176 L 206 217 L 129 217 Z M 129 176 " clip-rule="nonzero"/></clipPath><clipPath id="cc3ade8cc4"><path d="M 165.40625 140.636719 L 205.855469 176.621094 L 169.871094 217.070312 L 129.421875 181.085938 Z M 165.40625 140.636719 " clip-rule="nonzero"/></clipPath><clipPath id="cf63e9ff62"><path d="M 169.839844 216.515625 L 129.390625 180.53125 L 165.375 140.082031 L 205.820312 176.066406 Z M 169.839844 216.515625 " clip-rule="nonzero"/></clipPath><clipPath id="8d55617282"><path d="M 178 169 L 213 169 L 213 205 L 178 205 Z M 178 169 " clip-rule="nonzero"/></clipPath><clipPath id="b61178f175"><path d="M 177.753906 170.621094 L 212.25 169.28125 L 213.589844 203.777344 L 179.09375 205.117188 Z M 177.753906 170.621094 " clip-rule="nonzero"/></clipPath><clipPath id="6d31457693"><path d="M 177.753906 170.621094 L 212.25 169.28125 L 213.589844 203.777344 L 179.09375 205.117188 Z M 177.753906 170.621094 " clip-rule="nonzero"/></clipPath><clipPath id="8830eb36bf"><path d="M 177.753906 170.628906 L 212.429688 169.28125 L 213.773438 203.820312 L 179.09375 205.167969 Z M 177.753906 170.628906 " clip-rule="nonzero"/></clipPath><clipPath id="1c2d89ad80"><path d="M 211.125 220.335938 L 218.300781 220.335938 L 218.300781 227.511719 L 211.125 227.511719 Z M 211.125 220.335938 " clip-rule="nonzero"/></clipPath><clipPath id="da022f1418"><path d="M 214.714844 220.335938 C 212.734375 220.335938 211.125 221.941406 211.125 223.921875 C 211.125 225.902344 212.734375 227.511719 214.714844 227.511719 C 216.695312 227.511719 218.300781 225.902344 218.300781 223.921875 C 218.300781 221.941406 216.695312 220.335938 214.714844 220.335938 Z M 214.714844 220.335938 " clip-rule="nonzero"/></clipPath><clipPath id="396d8831cf"><path d="M 180.324219 220.335938 L 187.5 220.335938 L 187.5 227.511719 L 180.324219 227.511719 Z M 180.324219 220.335938 " clip-rule="nonzero"/></clipPath><clipPath id="0d51910cbc"><path d="M 183.914062 220.335938 C 181.929688 220.335938 180.324219 221.941406 180.324219 223.921875 C 180.324219 225.902344 181.929688 227.511719 183.914062 227.511719 C 185.894531 227.511719 187.5 225.902344 187.5 223.921875 C 187.5 221.941406 185.894531 220.335938 183.914062 220.335938 Z M 183.914062 220.335938 " clip-rule="nonzero"/></clipPath><clipPath id="31d7eb6757"><path d="M 191.175781 132.761719 L 193.546875 132.761719 L 193.546875 139.4375 L 191.175781 139.4375 Z M 191.175781 132.761719 " clip-rule="nonzero"/></clipPath><clipPath id="b944d4dfbf"><path d="M 191.925781 132.761719 L 192.796875 132.761719 C 192.996094 132.761719 193.1875 132.839844 193.328125 132.980469 C 193.46875 133.121094 193.546875 133.3125 193.546875 133.511719 L 193.546875 138.6875 C 193.546875 138.886719 193.46875 139.078125 193.328125 139.21875 C 193.1875 139.359375 192.996094 139.4375 192.796875 139.4375 L 191.925781 139.4375 C 191.726562 139.4375 191.535156 139.359375 191.394531 139.21875 C 191.253906 139.078125 191.175781 138.886719 191.175781 138.6875 L 191.175781 133.511719 C 191.175781 133.3125 191.253906 133.121094 191.394531 132.980469 C 191.535156 132.839844 191.726562 132.761719 191.925781 132.761719 Z M 191.925781 132.761719 " clip-rule="nonzero"/></clipPath><clipPath id="6d9654a74f"><path d="M 204.230469 132.761719 L 206.601562 132.761719 L 206.601562 139.4375 L 204.230469 139.4375 Z M 204.230469 132.761719 " clip-rule="nonzero"/></clipPath><clipPath id="5863c83f1b"><path d="M 204.980469 132.761719 L 205.851562 132.761719 C 206.050781 132.761719 206.242188 132.839844 206.382812 132.980469 C 206.523438 133.121094 206.601562 133.3125 206.601562 133.511719 L 206.601562 138.6875 C 206.601562 138.886719 206.523438 139.078125 206.382812 139.21875 C 206.242188 139.359375 206.050781 139.4375 205.851562 139.4375 L 204.980469 139.4375 C 204.78125 139.4375 204.589844 139.359375 204.449219 139.21875 C 204.308594 139.078125 204.230469 138.886719 204.230469 138.6875 L 204.230469 133.511719 C 204.230469 133.3125 204.308594 133.121094 204.449219 132.980469 C 204.589844 132.839844 204.78125 132.761719 204.980469 132.761719 Z M 204.980469 132.761719 " clip-rule="nonzero"/></clipPath><clipPath id="9b04728c85"><path d="M 189.539062 125.421875 L 195.160156 125.421875 L 195.160156 132.136719 L 189.539062 132.136719 Z M 189.539062 125.421875 " clip-rule="nonzero"/></clipPath><clipPath id="2362e7d8fb"><path d="M 191.8125 125.441406 L 192.910156 125.441406 C 193.507812 125.441406 194.078125 125.679688 194.5 126.101562 C 194.921875 126.523438 195.160156 127.097656 195.160156 127.691406 L 195.160156 129.871094 C 195.160156 130.46875 194.921875 131.039062 194.5 131.460938 C 194.078125 131.882812 193.507812 132.121094 192.910156 132.121094 L 191.8125 132.121094 C 191.214844 132.121094 190.640625 131.882812 190.21875 131.460938 C 189.796875 131.039062 189.5625 130.46875 189.5625 129.871094 L 189.5625 127.691406 C 189.5625 127.097656 189.796875 126.523438 190.21875 126.101562 C 190.640625 125.679688 191.214844 125.441406 191.8125 125.441406 Z M 191.8125 125.441406 " clip-rule="nonzero"/></clipPath><clipPath id="d5f93714cd"><path d="M 189.5625 122.90625 L 208.222656 122.90625 L 208.222656 126.710938 L 189.5625 126.710938 Z M 189.5625 122.90625 " clip-rule="nonzero"/></clipPath><clipPath id="e8f9e9a463"><path d="M 191.464844 122.90625 L 206.3125 122.90625 C 206.816406 122.90625 207.300781 123.105469 207.65625 123.460938 C 208.015625 123.820312 208.214844 124.304688 208.214844 124.808594 C 208.214844 125.3125 208.015625 125.796875 207.65625 126.152344 C 207.300781 126.511719 206.816406 126.710938 206.3125 126.710938 L 191.464844 126.710938 C 190.960938 126.710938 190.476562 126.511719 190.117188 126.152344 C 189.761719 125.796875 189.5625 125.3125 189.5625 124.808594 C 189.5625 124.304688 189.761719 123.820312 190.117188 123.460938 C 190.476562 123.105469 190.960938 122.90625 191.464844 122.90625 Z M 191.464844 122.90625 " clip-rule="nonzero"/></clipPath><clipPath id="8a74a71aad"><path d="M 202.59375 125.421875 L 208.214844 125.421875 L 208.214844 132.136719 L 202.59375 132.136719 Z M 202.59375 125.421875 " clip-rule="nonzero"/></clipPath><clipPath id="e6d624df1c"><path d="M 204.867188 125.441406 L 205.964844 125.441406 C 206.5625 125.441406 207.132812 125.679688 207.554688 126.101562 C 207.976562 126.523438 208.214844 127.097656 208.214844 127.691406 L 208.214844 129.871094 C 208.214844 130.46875 207.976562 131.039062 207.554688 131.460938 C 207.132812 131.882812 206.5625 132.121094 205.964844 132.121094 L 204.867188 132.121094 C 204.269531 132.121094 203.695312 131.882812 203.273438 131.460938 C 202.851562 131.039062 202.617188 130.46875 202.617188 129.871094 L 202.617188 127.691406 C 202.617188 127.097656 202.851562 126.523438 203.273438 126.101562 C 203.695312 125.679688 204.269531 125.441406 204.867188 125.441406 Z M 204.867188 125.441406 " clip-rule="nonzero"/></clipPath></defs><g clip-path="url(#d71e382e9b)"><g clip-path="url(#8f3768d742)"><path fill="#760461" d="M 170.078125 140.636719 L 227.941406 140.636719 L 227.941406 216.804688 L 170.078125 216.804688 Z M 170.078125 140.636719 " fill-opacity="1" fill-rule="nonzero"/></g></g><g clip-path="url(#0075751a87)"><g clip-path="url(#ab9bcd3e95)"><g clip-path="url(#ae65b414e3)"><path fill="#ffffff" d="M 169.433594 216.367188 L 209.582031 252.082031 C 208.210938 250.863281 206.90625 249.578125 205.667969 248.230469 C 204.449219 246.902344 203.300781 245.515625 202.222656 244.074219 C 201.164062 242.660156 200.164062 241.175781 199.253906 239.660156 C 198.355469 238.164062 197.515625 236.605469 196.765625 235.027344 C 195.273438 231.886719 194.097656 228.628906 193.238281 225.257812 C 192.386719 221.914062 191.859375 218.515625 191.660156 215.070312 C 191.457031 211.621094 191.585938 208.1875 192.042969 204.765625 C 192.503906 201.316406 193.292969 197.945312 194.410156 194.648438 C 194.96875 192.996094 195.621094 191.347656 196.339844 189.757812 C 197.070312 188.152344 197.886719 186.558594 198.773438 185.03125 C 199.679688 183.472656 200.65625 181.960938 201.710938 180.503906 C 202.789062 179.015625 203.9375 177.585938 205.160156 176.210938 Z M 169.433594 216.367188 " fill-opacity="1" fill-rule="nonzero"/></g></g></g><g clip-path="url(#7758414d28)"><g clip-path="url(#cc3ade8cc4)"><g clip-path="url(#cf63e9ff62)"><path fill="#ffffff" d="M 169.832031 216.511719 L 129.6875 180.796875 C 131.058594 182.011719 132.484375 183.160156 133.96875 184.234375 C 135.429688 185.289062 136.941406 186.269531 138.5 187.171875 C 140.027344 188.058594 141.617188 188.875 143.226562 189.605469 C 144.816406 190.328125 146.460938 190.976562 148.117188 191.539062 C 151.410156 192.652344 154.785156 193.441406 158.230469 193.902344 C 161.652344 194.359375 165.089844 194.488281 168.535156 194.285156 C 171.984375 194.085938 175.378906 193.558594 178.726562 192.707031 C 182.097656 191.847656 185.355469 190.671875 188.496094 189.179688 C 190.074219 188.429688 191.632812 187.59375 193.128906 186.691406 C 194.640625 185.78125 196.125 184.78125 197.542969 183.722656 C 198.984375 182.644531 200.371094 181.496094 201.699219 180.277344 C 203.050781 179.035156 204.335938 177.726562 205.558594 176.355469 Z M 169.832031 216.511719 " fill-opacity="1" fill-rule="nonzero"/></g></g></g><g clip-path="url(#8d55617282)"><g clip-path="url(#b61178f175)"><g clip-path="url(#6d31457693)"><g clip-path="url(#8830eb36bf)"><path fill="#ffffff" d="M 189.839844 204.273438 C 189.679688 204.019531 188.945312 202.851562 188.207031 201.679688 C 187.46875 200.507812 186.789062 199.414062 186.695312 199.25 C 186.601562 199.082031 186.496094 198.949219 186.460938 198.949219 C 186.421875 198.953125 186.035156 199.09375 185.59375 199.261719 C 184.367188 199.738281 184.164062 199.546875 184.578125 198.3125 C 184.714844 197.894531 184.828125 197.515625 184.828125 197.472656 C 184.824219 197.429688 183.4375 196.667969 181.746094 195.785156 L 178.667969 194.175781 L 179.351562 193.449219 C 180.273438 192.476562 179.929688 192.476562 184.09375 193.460938 C 185.480469 193.789062 186.675781 194.03125 186.75 194 C 186.828125 193.96875 187.289062 193.332031 187.777344 192.585938 C 189.207031 190.402344 189.75 189.722656 192.164062 187.066406 C 193.425781 185.679688 195.179688 183.726562 195.191406 183.683594 C 195.199219 183.644531 191.636719 181.734375 187.273438 179.441406 C 182.90625 177.148438 179.402344 175.3125 179.363281 175.261719 C 179.328125 175.207031 179.683594 174.753906 180.160156 174.25 C 180.867188 173.503906 181.085938 173.335938 181.371094 173.328125 C 181.566406 173.320312 182.546875 173.511719 183.554688 173.75 C 184.5625 173.992188 187.21875 174.554688 189.566406 175.113281 L 193.84375 176.128906 L 194.722656 175.199219 C 195.207031 174.691406 195.738281 174.234375 195.90625 174.183594 C 196.582031 173.988281 197.390625 174.351562 197.730469 175.003906 C 198.03125 175.582031 198 176.003906 197.617188 176.472656 C 197.433594 176.699219 197.300781 176.902344 197.328125 176.925781 C 197.351562 176.949219 198.109375 177.144531 199.007812 177.363281 L 200.644531 177.757812 L 203.707031 174.417969 C 207.074219 170.746094 207.386719 170.484375 209.179688 169.832031 C 210.433594 169.378906 211.304688 169.230469 211.835938 169.382812 C 212.164062 169.480469 212.265625 169.582031 212.390625 169.945312 C 212.585938 170.515625 212.460938 171.539062 212.027344 172.890625 C 211.507812 174.527344 211.132812 175.03125 207.878906 178.488281 L 204.871094 181.679688 L 205.394531 183.28125 C 205.679688 184.160156 205.933594 184.902344 205.957031 184.921875 C 205.980469 184.945312 206.175781 184.800781 206.386719 184.597656 C 206.839844 184.167969 207.246094 184.117188 207.882812 184.410156 C 208.433594 184.667969 208.816406 185.21875 208.835938 185.796875 C 208.851562 186.199219 208.777344 186.324219 207.925781 187.253906 L 207 188.269531 L 208.027344 191.492188 C 208.59375 193.265625 209.398438 195.921875 209.890625 197.460938 C 210.382812 199 210.792969 200.414062 210.796875 200.601562 C 210.808594 200.878906 210.644531 201.125 209.925781 201.914062 L 209.039062 202.882812 L 204.933594 196.300781 C 202.648438 192.648438 200.46875 189.1875 200.109375 188.601562 C 199.746094 188.015625 199.421875 187.550781 199.386719 187.566406 C 199.347656 187.582031 197.457031 189.550781 196.074219 191.003906 C 193.753906 193.433594 192.429688 194.632812 190.203125 196.316406 C 189.929688 196.527344 189.703125 196.769531 189.707031 196.855469 C 189.710938 196.945312 190.113281 198.273438 190.601562 199.808594 C 191.09375 201.34375 191.5 202.761719 191.507812 202.964844 C 191.519531 203.253906 191.394531 203.476562 190.921875 204.03125 C 190.589844 204.417969 190.277344 204.734375 190.226562 204.734375 C 190.171875 204.738281 190 204.53125 189.839844 204.273438 Z M 189.839844 204.273438 " fill-opacity="1" fill-rule="nonzero"/></g></g></g></g><g clip-path="url(#1c2d89ad80)"><g clip-path="url(#da022f1418)"><path fill="#760461" d="M 211.125 220.335938 L 218.300781 220.335938 L 218.300781 227.511719 L 211.125 227.511719 Z M 211.125 220.335938 " fill-opacity="1" fill-rule="nonzero"/></g></g><g clip-path="url(#396d8831cf)"><g clip-path="url(#0d51910cbc)"><path fill="#760461" d="M 180.324219 220.335938 L 187.5 220.335938 L 187.5 227.511719 L 180.324219 227.511719 Z M 180.324219 220.335938 " fill-opacity="1" fill-rule="nonzero"/></g></g><g clip-path="url(#31d7eb6757)"><g clip-path="url(#b944d4dfbf)"><path fill="#760461" d="M 191.175781 132.761719 L 193.546875 132.761719 L 193.546875 139.441406 L 191.175781 139.441406 Z M 191.175781 132.761719 " fill-opacity="1" fill-rule="nonzero"/></g></g><g clip-path="url(#6d9654a74f)"><g clip-path="url(#5863c83f1b)"><path fill="#760461" d="M 204.230469 132.761719 L 206.601562 132.761719 L 206.601562 139.441406 L 204.230469 139.441406 Z M 204.230469 132.761719 " fill-opacity="1" fill-rule="nonzero"/></g></g><g clip-path="url(#9b04728c85)"><g clip-path="url(#2362e7d8fb)"><path fill="#760461" d="M 189.5625 125.441406 L 195.160156 125.441406 L 195.160156 132.113281 L 189.5625 132.113281 Z M 189.5625 125.441406 " fill-opacity="1" fill-rule="nonzero"/></g></g><g clip-path="url(#d5f93714cd)"><g clip-path="url(#e8f9e9a463)"><path fill="#760461" d="M 189.5625 122.90625 L 208.207031 122.90625 L 208.207031 126.710938 L 189.5625 126.710938 Z M 189.5625 122.90625 " fill-opacity="1" fill-rule="nonzero"/></g></g><g clip-path="url(#8a74a71aad)"><g clip-path="url(#e6d624df1c)"><path fill="#760461" d="M 202.617188 125.441406 L 208.214844 125.441406 L 208.214844 132.113281 L 202.617188 132.113281 Z M 202.617188 125.441406 " fill-opacity="1" fill-rule="nonzero"/></g></g></svg>