<svg width="24" height="23" viewBox="0 0 24 23" fill="none" xmlns="http://www.w3.org/2000/svg">
<g id="4">
<g id="logo-github 1">
<g id="Group">
<path id="Vector" fill-rule="evenodd" clip-rule="evenodd" d="M11.7883 0C5.39699 0 0.255096 5.11733 0.255096 11.4781C0.255096 16.5476 3.57089 20.8519 8.13612 22.3823C8.71278 22.478 8.905 22.1432 8.905 21.8084C8.905 21.5215 8.905 20.8041 8.905 19.8476C5.68532 20.565 5.01255 18.3172 5.01255 18.3172C4.48394 16.9781 3.71506 16.6433 3.71506 16.6433C2.65785 15.9259 3.81117 15.9259 3.81117 15.9259C4.96449 16.0216 5.58921 17.1215 5.58921 17.1215C6.59836 18.8911 8.28029 18.365 8.95306 18.0781C9.04917 17.3128 9.3375 16.8346 9.67388 16.5476C7.12697 16.2607 4.43588 15.2563 4.43588 10.8564C4.43588 9.61293 4.86838 8.56077 5.63726 7.79556C5.54115 7.50861 5.10865 6.3608 5.73337 4.73473C5.73337 4.73473 6.69447 4.44777 8.905 5.93037C9.81805 5.69124 10.8272 5.54776 11.7883 5.54776C12.7494 5.54776 13.7586 5.69124 14.6716 5.93037C16.8821 4.44777 17.8432 4.73473 17.8432 4.73473C18.468 6.31297 18.0835 7.46078 17.9394 7.79556C18.6602 8.60859 19.1407 9.61293 19.1407 10.8564C19.1407 15.2563 16.4496 16.2129 13.8547 16.4998C14.2872 16.8346 14.6236 17.552 14.6236 18.6041C14.6236 20.1345 14.6236 21.378 14.6236 21.7606C14.6236 22.0476 14.8158 22.4302 15.4405 22.3345C20.0057 20.8519 23.3215 16.5476 23.3215 11.4781C23.3215 5.11733 18.1796 0 11.7883 0Z" fill="#131318"/>
</g>
</g>
</g>
</svg>
