<svg width="25" height="24" viewBox="0 0 25 24" fill="none" xmlns="http://www.w3.org/2000/svg">
<g id="3">
<g id="logo-instagram 1">
<g id="Group">
<path id="Vector" d="M12.1981 2.16218C15.4173 2.16218 15.7985 2.17418 17.0703 2.23189C17.8349 2.24121 18.5922 2.38094 19.3094 2.64502C19.8295 2.84463 20.3018 3.15042 20.696 3.54269C21.0901 3.93496 21.3974 4.40502 21.598 4.92262C21.8633 5.63637 22.0037 6.39011 22.0131 7.15109C22.0705 8.41674 22.0831 8.79615 22.0831 12C22.0831 15.2038 22.071 15.5833 22.0131 16.8489C22.0037 17.6099 21.8633 18.3636 21.598 19.0774C21.3974 19.595 21.0901 20.065 20.696 20.4573C20.3018 20.8496 19.8295 21.1554 19.3094 21.355C18.5922 21.6191 17.8349 21.7588 17.0703 21.7681C15.7991 21.8252 15.4179 21.8378 12.1981 21.8378C8.97828 21.8378 8.59705 21.8258 7.32589 21.7681C6.56126 21.7588 5.8039 21.6191 5.08673 21.355C4.56665 21.1554 4.09433 20.8496 3.70018 20.4573C3.30602 20.065 2.99877 19.595 2.7982 19.0774C2.53285 18.3636 2.39245 17.6099 2.38309 16.8489C2.32568 15.5833 2.31304 15.2038 2.31304 12C2.31304 8.79615 2.3251 8.41674 2.38309 7.15109C2.39245 6.39011 2.53285 5.63637 2.7982 4.92262C2.99877 4.40502 3.30602 3.93496 3.70018 3.54269C4.09433 3.15042 4.56665 2.84463 5.08673 2.64502C5.8039 2.38094 6.56126 2.24121 7.32589 2.23189C8.59762 2.17475 8.97885 2.16218 12.1981 2.16218ZM12.1981 0C8.92546 0 8.51322 0.0137136 7.22714 0.0719965C6.22643 0.0918058 5.23635 0.280376 4.29901 0.629684C3.49492 0.931193 2.76661 1.40368 2.16492 2.01419C1.55093 2.61323 1.07576 3.33847 0.772618 4.13923C0.421632 5.0721 0.232158 6.05745 0.212254 7.05338C0.154839 8.33217 0.14106 8.74244 0.14106 11.9994C0.14106 15.2564 0.154839 15.6667 0.213402 16.9466C0.233306 17.9425 0.422781 18.9279 0.773766 19.8608C1.07657 20.6614 1.55134 21.3867 2.16492 21.9858C2.76695 22.5965 3.49565 23.069 4.30016 23.3703C5.2375 23.7196 6.22758 23.9082 7.22829 23.928C8.51437 23.9851 8.92488 24 12.1992 24C15.4736 24 15.8841 23.9863 17.1702 23.928C18.1709 23.9082 19.1609 23.7196 20.0983 23.3703C20.899 23.0614 21.6261 22.5896 22.2331 21.9851C22.8401 21.3806 23.3137 20.6567 23.6235 19.8596C23.9745 18.9268 24.164 17.9414 24.1839 16.9455C24.2413 15.6667 24.2551 15.2564 24.2551 11.9994C24.2551 8.74244 24.2413 8.33217 24.1827 7.05224C24.1628 6.05631 23.9734 5.07096 23.6224 4.13809C23.3196 3.33743 22.8448 2.6122 22.2312 2.01305C21.6292 1.4024 20.9005 0.929903 20.096 0.628541C19.1586 0.279233 18.1686 0.0906631 17.1679 0.0708538C15.8829 0.0137137 15.4707 0 12.1981 0Z" fill="#131318"/>
<path id="Vector_2" d="M12.1959 5.83789C10.9713 5.83789 9.77424 6.19929 8.75604 6.87637C7.73784 7.55346 6.94425 8.51583 6.47563 9.64179C6.00701 10.7677 5.88439 12.0067 6.12329 13.202C6.3622 14.3973 6.95189 15.4953 7.81779 16.3571C8.6837 17.2188 9.78693 17.8057 10.988 18.0435C12.189 18.2812 13.4339 18.1592 14.5653 17.6928C15.6967 17.2264 16.6636 16.4366 17.344 15.4233C18.0243 14.41 18.3875 13.2186 18.3875 11.9999C18.3875 10.3656 17.7351 8.7983 16.574 7.6427C15.4128 6.4871 13.838 5.83789 12.1959 5.83789ZM12.1959 15.9997C11.401 15.9997 10.624 15.7651 9.96305 15.3256C9.30213 14.8861 8.787 14.2614 8.48281 13.5305C8.17862 12.7997 8.09903 11.9954 8.25411 11.2196C8.40918 10.4437 8.79196 9.73097 9.35402 9.17159C9.91609 8.61221 10.6322 8.23126 11.4118 8.07693C12.1914 7.9226 12.9995 8.0018 13.7339 8.30454C14.4683 8.60728 15.096 9.11994 15.5376 9.77771C15.9792 10.4355 16.2149 11.2088 16.2149 11.9999C16.2149 13.0607 15.7915 14.0781 15.0378 14.8282C14.284 15.5783 13.2618 15.9997 12.1959 15.9997Z" fill="#131318"/>
<path id="Vector_3" d="M18.6329 7.03416C19.432 7.03416 20.0798 6.38948 20.0798 5.59423C20.0798 4.79898 19.432 4.1543 18.6329 4.1543C17.8339 4.1543 17.1861 4.79898 17.1861 5.59423C17.1861 6.38948 17.8339 7.03416 18.6329 7.03416Z" fill="#131318"/>
</g>
</g>
</g>
</svg>
