<svg width="20" height="17" viewBox="0 0 20 17" fill="none" xmlns="http://www.w3.org/2000/svg">
<g id="1">
<g id="logo-twitter 2">
<g id="Group">
<path id="Vector" d="M19.8879 2.65539C19.1421 2.98527 18.3548 3.19144 17.5262 3.31515C18.3548 2.82033 19.0178 2.03686 19.3078 1.08845C18.5206 1.54204 17.6505 1.87192 16.6975 2.07809C15.9517 1.29463 14.8745 0.799805 13.7143 0.799805C11.4769 0.799805 9.6539 2.61415 9.6539 4.84085C9.6539 5.17073 9.69533 5.45938 9.7782 5.74802C6.42212 5.58308 3.39751 3.97491 1.36729 1.5008C1.03583 2.11933 0.828661 2.77909 0.828661 3.52132C0.828661 4.92332 1.53302 6.16037 2.65171 6.90261C1.98879 6.86137 1.36729 6.69643 0.787228 6.40779V6.44902C0.787228 8.42831 2.19595 10.0777 4.06044 10.4488C3.72897 10.5313 3.35608 10.5725 2.98318 10.5725C2.73458 10.5725 2.44455 10.5313 2.19595 10.4901C2.73458 12.0982 4.22617 13.2941 6.00779 13.2941C4.59907 14.3662 2.85888 15.0259 0.95296 15.0259C0.621495 15.0259 0.290031 15.0259 0 14.9847C1.82305 16.1393 3.93614 16.799 6.25639 16.799C13.7558 16.799 17.8576 10.6138 17.8576 5.2532C17.8576 5.08826 17.8576 4.88208 17.8576 4.71714C18.6449 4.18109 19.3492 3.48009 19.8879 2.65539Z" fill="#131318"/>
</g>
</g>
</g>
</svg>
